<svg width="60" height="60" viewBox="0 0 60 60" fill="none" xmlns="http://www.w3.org/2000/svg">
<circle cx="30" cy="30" r="28" fill="url(#paint0_linear_23_521)" stroke="white" stroke-width="4"/>
<path d="M39.615 24.0001C38.9842 23.9946 38.3764 24.237 37.9227 24.6751L30 32.5948L22.0773 24.6751C21.6236 24.237 21.0158 23.9946 20.385 24.0001C19.7542 24.0056 19.1508 24.2585 18.7047 24.7044C18.2586 25.1503 18.0056 25.7535 18.0001 26.3841C17.9946 27.0147 18.2371 27.6222 18.6754 28.0758L28.299 37.6958C28.7502 38.1467 29.362 38.4 30 38.4C30.638 38.4 31.2498 38.1467 31.701 37.6958L41.3246 28.0758C41.7629 27.6222 42.0054 27.0147 41.9999 26.3841C41.9944 25.7535 41.7414 25.1503 41.2953 24.7044C40.8492 24.2585 40.2458 24.0056 39.615 24.0001Z" fill="white"/>
<defs>
<linearGradient id="paint0_linear_23_521" x1="30" y1="0" x2="30" y2="97.5" gradientUnits="userSpaceOnUse">
<stop stop-color="#0081F7"/>
<stop offset="1" stop-opacity="0"/>
</linearGradient>
</defs>
</svg>
