<svg width="1149" height="160" viewBox="0 0 1149 160" fill="none" xmlns="http://www.w3.org/2000/svg">
<g clip-path="url(#clip0_72_381)">
<path fill-rule="evenodd" clip-rule="evenodd" d="M30 110C46.5685 110 60 96.5685 60 80C60 63.4315 46.5685 50 30 50C13.4315 50 0 63.4315 0 80C0 96.5685 13.4315 110 30 110ZM34.2147 80.1925C35.6518 80.1925 36.9018 81.062 37.397 82.312C34.0214 82.3905 31.1048 84.3953 29.6616 87.2817H15V83.6043C15 81.7082 16.5519 80.1562 18.448 80.1562H21.9323C22.9165 80.1562 23.7136 79.3592 23.7136 78.3749V77.9582C23.7136 75.7239 22.8441 73.5621 21.4794 71.7808C20.6823 70.7542 20.2294 69.5042 20.2294 68.1033C20.2294 64.4681 23.3755 61.6239 27.0529 62.0406C29.7401 62.3788 31.9744 64.4983 32.3548 67.1915C32.6205 69.0151 32.0891 70.718 31.0263 71.968C29.5891 73.7131 28.943 75.9836 28.943 78.2601V78.4111C28.943 79.3954 29.7401 80.1925 30.7244 80.1925H34.2147ZM16.4371 91.8647V89.5882H28.9429C28.8282 90.0833 28.792 90.651 28.792 91.1824C28.792 91.7138 28.8644 92.2451 28.9429 92.7765H17.3489C16.8538 92.7765 16.4371 92.3599 16.4371 91.8647ZM37.6627 84.2805C33.8705 84.2805 30.8029 87.3481 30.8029 91.1403C30.8029 94.9325 33.8705 98 37.6627 98C41.4549 98 44.5225 94.9325 44.5225 91.1403C44.5225 87.3481 41.4489 84.2805 37.6627 84.2805ZM40.5371 92.6197C40.9175 93.0001 40.9175 93.6402 40.5371 94.0206C40.3499 94.2078 40.0842 94.3226 39.8185 94.3226C39.5528 94.3226 39.3233 94.2078 39.0999 94.0206L37.6205 92.5412L36.1833 94.0206C35.9961 94.2078 35.7304 94.3226 35.4647 94.3226C35.199 94.3226 34.9695 94.2078 34.7461 94.0206C34.3657 93.6402 34.3657 93.0001 34.7461 92.6197L36.2255 91.1403L34.7461 89.6608C34.3657 89.2804 34.3657 88.6403 34.7461 88.2599C35.1265 87.8794 35.7666 87.8794 36.147 88.2599L37.6265 89.7393L39.1059 88.2599C39.4864 87.8794 40.1264 87.8794 40.5069 88.2599C40.8873 88.6403 40.8873 89.2804 40.5069 89.6608L39.0274 91.1403L40.5371 92.6197Z" fill="white"/>
</g>
<g clip-path="url(#clip1_72_381)">
<path fill-rule="evenodd" clip-rule="evenodd" d="M167 110C183.569 110 197 96.5685 197 80C197 63.4315 183.569 50 167 50C150.431 50 137 63.4315 137 80C137 96.5685 150.431 110 167 110ZM172.057 79.7375C172.051 79.7509 172.045 79.7642 172.038 79.7756H172.19C172.171 79.7642 172.152 79.7509 172.133 79.7375C172.114 79.7242 172.095 79.7109 172.076 79.6995C172.068 79.7109 172.062 79.7242 172.057 79.7375ZM172.388 77.9478L172.365 77.9249C171.421 76.9577 170.911 75.663 170.926 74.315C170.926 71.7256 172.716 69.616 174.909 69.616C177.102 69.616 178.884 71.7256 178.884 74.315C178.884 76.9044 177.102 79.014 174.909 79.014C173.965 79.0064 173.058 78.6256 172.388 77.9478ZM153.973 83.02C156.684 84.8935 160.073 85.518 163.279 84.726C163.409 83.3703 164.041 82.1137 165.062 81.1998C166.074 80.2859 167.384 79.7756 168.748 79.7756H170.217C170.461 79.4024 170.674 79.0064 170.872 78.6028C169.882 77.3918 169.349 75.8839 169.365 74.3226C169.342 72.5253 170.05 70.8041 171.329 69.5398C170.522 67.3236 169.052 65.412 167.118 64.064C165.191 62.716 162.883 61.9924 160.53 62.0001C157.232 62.0001 154.087 63.4166 151.901 65.8842C149.715 68.3517 148.687 71.6418 149.083 74.9167C149.479 78.1991 151.261 81.1465 153.973 83.02ZM160.53 63.6679C160.964 63.6679 161.314 64.0183 161.314 64.4524V73.5306C161.314 73.7438 161.223 73.9494 161.071 74.0941L156.844 78.1382C156.699 78.2753 156.501 78.3591 156.303 78.3591C156.09 78.3514 155.892 78.2677 155.74 78.1153C155.443 77.8031 155.45 77.3081 155.762 77.011L159.746 73.1955V64.4524C159.746 64.0183 160.096 63.6679 160.53 63.6679ZM168.908 97.8863V95.4644L175.229 93.0806L180.91 95.4492V97.8863H168.908ZM184.002 93.8575C184.627 93.4157 185 92.6998 185 91.9306V85.2591C185 84.2233 184.589 83.2256 183.85 82.4869C183.119 81.7481 182.121 81.3369 181.078 81.3369H168.732C167.689 81.3369 166.691 81.7558 165.96 82.4869C165.221 83.2256 164.81 84.2233 164.81 85.2591V91.9306C164.81 92.6998 165.191 93.4157 165.823 93.8575C166.455 94.2992 167.263 94.3982 167.986 94.1316L173.119 92.1972L168.778 90.377C168.649 90.6055 168.397 90.7502 168.123 90.7578C167.91 90.7578 167.712 90.674 167.567 90.5293C167.422 90.377 167.339 90.179 167.339 89.9733V85.6627C167.339 85.2286 167.689 84.8783 168.123 84.8783C168.557 84.8783 168.908 85.2286 168.908 85.6627V88.7396L181.855 94.1469C182.571 94.4058 183.378 94.2992 184.002 93.8575ZM182.479 89.0975L183.066 89.2117C183.462 89.2879 183.728 89.6535 183.698 90.0571C183.652 90.4607 183.317 90.7654 182.913 90.7654C182.86 90.7654 182.807 90.7578 182.753 90.7502L172.061 88.5948C171.863 88.5568 171.68 88.4349 171.566 88.2598C171.451 88.0922 171.413 87.879 171.451 87.6733C171.489 87.4753 171.604 87.2925 171.779 87.1783C171.954 87.064 172.16 87.0184 172.365 87.064L180.91 88.7776V85.6703C180.91 85.2362 181.261 84.8859 181.695 84.8859C182.129 84.8859 182.479 85.2362 182.479 85.6703V89.0975Z" fill="white"/>
</g>
<g clip-path="url(#clip2_72_381)">
<path fill-rule="evenodd" clip-rule="evenodd" d="M304 110C320.569 110 334 96.5685 334 80C334 63.4315 320.569 50 304 50C287.431 50 274 63.4315 274 80C274 96.5685 287.431 110 304 110ZM313.143 62.4418V69.2927C313.143 69.5389 312.948 69.7345 312.709 69.7345H303.127V77.6862C303.127 77.9324 302.925 78.1279 302.686 78.1279C302.439 78.1279 302.244 77.9252 302.244 77.6862V62.4418C302.244 62.1955 302.447 62 302.686 62H302.693H312.701C312.948 62 313.143 62.2028 313.143 62.4418ZM307.053 71.4001V70.169H312.701C313.186 70.169 313.578 69.7779 313.578 69.2927V65.44H316.185C316.67 65.44 317.068 65.831 317.068 66.3235V71.4001C317.068 71.8853 316.677 72.2836 316.185 72.2836H307.936C307.451 72.2836 307.053 71.8926 307.053 71.4001ZM302.686 80.0761C302.447 80.0761 302.244 80.2716 302.244 80.5178V80.9451C302.244 81.1841 302.439 81.3869 302.686 81.3869C302.925 81.3869 303.127 81.1913 303.127 80.9451V80.5178C303.12 80.2716 302.925 80.0761 302.686 80.0761ZM298.55 82.7194C298.55 84.1678 297.848 85.4496 296.762 86.2535C299.839 86.3983 302.309 88.9402 302.331 92.0543V97.5582C302.331 97.8045 302.128 98 301.889 98H298.92V95.8129C298.92 95.5667 298.717 95.3711 298.478 95.3711C298.232 95.3711 298.036 95.5739 298.036 95.8129V98H290.295V95.8129C290.295 95.5667 290.092 95.3711 289.853 95.3711C289.607 95.3711 289.411 95.5739 289.411 95.8129V98H286.442C286.196 98 286 97.7972 286 97.5582V92.0543C286 88.9402 288.47 86.3911 291.547 86.2535C290.468 85.4496 289.759 84.1678 289.759 82.7194C289.759 80.2933 291.728 78.3235 294.154 78.3235C296.581 78.3235 298.55 80.2933 298.55 82.7194ZM316.395 86.2535C317.481 85.4496 318.183 84.1678 318.183 82.7194C318.183 80.2933 316.214 78.3235 313.788 78.3235C311.362 78.3235 309.392 80.2933 309.392 82.7194C309.392 84.1678 310.101 85.4496 311.18 86.2535C308.103 86.3911 305.633 88.9402 305.633 92.0543V97.5582C305.633 97.7972 305.829 98 306.075 98H309.044V95.8129C309.044 95.5739 309.24 95.3711 309.486 95.3711C309.725 95.3711 309.928 95.5667 309.928 95.8129V98H317.655V95.8129C317.655 95.5739 317.85 95.3711 318.097 95.3711C318.336 95.3711 318.538 95.5667 318.538 95.8129V98H321.508C321.747 98 321.949 97.8045 321.949 97.5582V92.0543C321.935 88.9402 319.473 86.3983 316.395 86.2535Z" fill="white"/>
</g>
<g clip-path="url(#clip3_72_381)">
<path fill-rule="evenodd" clip-rule="evenodd" d="M711 110C727.569 110 741 96.5685 741 80C741 63.4315 727.569 50 711 50C694.431 50 681 63.4315 681 80C681 96.5685 694.431 110 711 110ZM712.315 71.3206C712.316 71.3155 712.318 71.3099 712.321 71.3043C712.989 69.9994 713.446 68.7845 713.761 67.7624C713.677 67.6724 713.6 67.5695 713.529 67.4667C713.311 67.1517 713.137 66.7982 713.028 66.4125C712.507 64.5676 713.581 62.6521 715.426 62.1314C717.27 61.6107 719.192 62.6842 719.7 64.5226C720.221 66.3675 719.147 68.2831 717.303 68.8037C717.078 68.868 716.846 68.9066 716.621 68.9259C716.48 68.9387 716.345 68.9387 716.21 68.9323C715.509 69.7551 714.577 70.6165 713.362 71.375C710.444 73.1941 709.621 74.8204 709.454 75.2318C709.441 75.2639 709.435 75.2832 709.428 75.3025C709.672 75.5725 709.801 75.8875 709.782 76.1896C709.03 76.0932 708.348 75.926 707.744 75.6882C707.558 75.6175 707.371 75.5404 707.198 75.4504C707.146 75.3604 707.133 75.2768 707.172 75.2061C707.455 74.6854 708.239 74.5569 708.933 74.9233C709.075 74.5376 709.756 73.0913 712.308 71.3364C712.312 71.3328 712.313 71.3271 712.315 71.3206ZM714.262 68.2316C714.024 68.9709 713.709 69.8001 713.304 70.6872C714.198 70.1022 714.911 69.4594 715.49 68.8295C715.381 68.8037 715.271 68.7652 715.162 68.7266C714.937 68.6495 714.725 68.5402 714.526 68.4181C714.436 68.3602 714.346 68.2959 714.262 68.2316ZM711.479 76.3053C710.99 76.3053 710.527 76.2796 710.09 76.2346C710.11 75.9132 710.007 75.5661 709.801 75.2575C709.82 75.2189 709.846 75.1675 709.878 75.1097C710.167 75.0068 710.457 74.8783 710.759 74.7175C711.556 74.2933 712.372 73.7019 713.112 73.072C714.333 72.037 715.336 70.925 715.773 70.4107C715.908 70.1858 716.062 69.9993 716.236 69.8644L716.247 69.8553C716.647 69.5506 716.993 69.287 718.833 69.4015C723.409 69.6844 725.801 79.8921 724.856 88.4929C724.791 89.0778 723.004 89.4957 720.947 89.6692L720.735 96.1359C720.697 97.1772 719.842 98 718.807 98H718.743C717.675 97.9614 716.846 97.0744 716.878 96.0073L717.084 89.6949C715.914 89.5985 715.008 89.38 714.764 89.0264C714.199 88.2151 714.41 85.5454 714.605 83.0761C714.71 81.75 714.81 80.4817 714.783 79.59V79.5643C715.303 79.4036 715.798 79.1915 716.248 78.9344C718.061 77.8994 718.916 76.3117 719.315 75.1611C719.713 74.0105 719.803 72.982 719.803 72.3199C719.803 72.2331 719.8 72.168 719.798 72.1355C719.797 72.1246 719.797 72.1174 719.797 72.1142C719.758 71.285 719.083 70.6422 718.26 70.6422H718.19H718.183C717.335 70.6807 716.679 71.4007 716.718 72.2492V72.3199C716.724 72.4742 716.705 72.757 716.653 73.1041C716.57 73.6441 716.39 74.3319 716.036 74.9297C715.708 75.4889 715.291 75.9132 714.757 76.2281C714.764 75.7718 714.783 75.3154 714.815 74.8525C714.185 75.3925 713.491 75.9325 712.752 76.4017C712.578 76.331 712.385 76.2924 712.186 76.2924H712.122L712.121 76.2924C711.903 76.2989 711.684 76.3053 711.479 76.3053ZM716.731 83.7554L716.917 84.3982L717.245 84.2889L719.443 83.5561L719.34 83.119L716.731 83.7554ZM706.497 63.8798C708.303 64.5162 709.255 66.496 708.625 68.3023C707.988 70.1086 706.008 71.06 704.202 70.43C702.396 69.7936 701.445 67.8138 702.075 66.0075C702.704 64.2012 704.691 63.2434 706.497 63.8798ZM698.263 81.7949C698.237 78.343 698.68 76.3567 700.063 73.3741C701.078 71.2143 703.052 70.7129 704.331 71.1821C705.398 71.5742 705.829 72.9563 705.591 74.2676C705.282 73.9333 705.076 73.6184 704.961 73.3934C704.89 73.2455 704.839 73.1363 704.813 73.0656C704.809 73.0463 704.803 73.0293 704.799 73.0175L704.799 73.0174C704.796 73.0095 704.794 73.0038 704.794 73.0013C704.607 72.3392 703.997 71.8764 703.309 71.8764C703.174 71.8764 703.032 71.8892 702.904 71.9278C702.505 72.0371 702.171 72.2878 701.965 72.6477C701.76 73.0013 701.702 73.4191 701.811 73.8176C701.882 74.0748 702.312 75.4247 703.707 76.7488C703.958 76.9867 704.254 77.2374 704.594 77.4816C704.221 78.748 703.881 80.13 703.752 81.4799C704.671 81.5892 705.591 81.8142 706.465 82.232C707.77 82.8491 708.94 83.9868 709.57 85.536C709.994 86.5709 710.2 87.7537 710.2 89.0907C710.2 90.2478 710.052 91.527 709.737 92.954C709.557 93.7832 708.824 94.3489 708.008 94.3489C707.885 94.3489 707.757 94.336 707.628 94.3103C706.671 94.0982 706.06 93.1533 706.272 92.1955C706.542 90.9613 706.658 89.9328 706.658 89.0907C706.658 88.1137 706.51 87.4001 706.298 86.8923C706.079 86.3781 705.816 86.0502 705.488 85.7803C704.845 85.2532 703.752 84.951 702.377 84.9575C702.261 84.9575 702.145 84.9446 702.03 84.9253C701.882 84.9189 701.721 84.9061 701.547 84.8868C700.14 84.7518 698.475 84.3147 698.263 81.7949ZM704.517 73.1748C704.512 73.1601 704.507 73.1472 704.503 73.1362C704.496 73.1185 704.491 73.1056 704.491 73.0977V73.0912V73.0848C704.305 72.4356 703.637 72.0563 702.981 72.2299C702.325 72.4099 701.933 73.0848 702.113 73.7405C702.152 73.8819 702.531 75.2061 703.926 76.5303C704.151 76.7488 704.408 76.9609 704.691 77.1666C705.771 77.9573 707.268 78.6322 709.261 78.9215C709.165 78.6901 709.133 78.4394 709.158 78.1823C709.171 78.0409 709.21 77.9059 709.255 77.7837C709.48 77.2052 710.039 76.8002 710.688 76.8002H710.688C710.74 76.8002 710.797 76.8002 710.849 76.8067C711.228 76.8452 711.588 76.8645 711.935 76.8645C712.269 76.8645 712.578 76.8452 712.874 76.8067C712.726 76.7038 712.559 76.6395 712.379 76.6074C712.295 76.5945 712.212 76.5881 712.128 76.5945L712.109 76.5951L712.109 76.5951L712.108 76.5951C711.89 76.6013 711.678 76.6074 711.472 76.6074C710.952 76.6074 710.47 76.5817 710.026 76.5303C709.971 76.5238 709.918 76.5174 709.865 76.511C709.812 76.5046 709.759 76.4981 709.705 76.4917C708.998 76.3953 708.393 76.2474 707.873 76.0674C707.757 76.0289 707.641 75.9839 707.538 75.9389C707.339 75.8553 707.153 75.7718 706.979 75.6818C706.401 75.3861 705.964 75.0518 705.616 74.7304L705.501 74.6147C705.096 74.2097 704.839 73.8112 704.684 73.5219C704.607 73.3906 704.557 73.2703 704.524 73.192L704.524 73.192L704.517 73.1748ZM702.396 95.3131H697.845L697.549 97.8843H696L696.636 87.1109V85.8124H703.604V87.1109L704.241 97.8843H702.692L702.396 95.3131ZM702.081 87.3551H698.166L697.909 94.6446H702.345L702.081 87.3551ZM711.935 77.1795C711.749 77.1795 711.556 77.1731 711.35 77.1602L711.35 77.1602C711.177 77.1474 711.003 77.1345 710.817 77.1152C710.315 77.0638 709.859 77.3145 709.621 77.7259C709.537 77.8738 709.48 78.0345 709.46 78.2144C709.435 78.4908 709.499 78.748 709.627 78.973C709.705 79.1079 709.807 79.2236 709.936 79.3201C710.11 79.4551 710.328 79.545 710.566 79.5708C711.048 79.6222 711.504 79.6415 711.935 79.6415H711.948C713.009 79.6415 713.947 79.4936 714.764 79.2301C715.246 79.0758 715.689 78.883 716.088 78.6515C717.72 77.7195 718.588 76.2732 719.012 75.0454C719.443 73.8048 719.482 72.7377 719.488 72.307C719.488 72.1978 719.488 72.1271 719.482 72.1142C719.45 71.4328 718.877 70.9122 718.196 70.9379H718.19C717.508 70.97 716.988 71.5421 717.013 72.2235V72.307C717.013 72.3906 717.013 72.532 716.994 72.7184C716.943 73.2905 716.782 74.2548 716.293 75.0775C715.972 75.6304 715.528 76.1253 714.86 76.511C714.845 76.5185 714.83 76.527 714.814 76.5357C714.79 76.5494 714.765 76.5635 714.738 76.5753C714.391 76.7553 713.986 76.9095 713.491 77.0188C713.381 77.0445 713.272 77.0638 713.157 77.0831C712.797 77.1474 712.392 77.1795 711.935 77.1795Z" fill="white"/>
</g>
<g clip-path="url(#clip4_72_381)">
<path fill-rule="evenodd" clip-rule="evenodd" d="M847 110C863.569 110 877 96.5685 877 80C877 63.4315 863.569 50 847 50C830.431 50 817 63.4315 817 80C817 96.5685 830.431 110 847 110ZM857.404 71.3224V64.5218C857.404 64.2345 857.17 64 856.882 64H845.96C845.673 64 845.439 64.2345 845.439 64.5218V71.3224C845.439 71.6096 845.673 71.8441 845.96 71.8441H856.882C857.17 71.8441 857.404 71.6096 857.404 71.3224ZM846.5 65.1198H846.007V64.6273H846.5V65.1198ZM847.268 65.1198H846.775V64.6273H847.268V65.1198ZM848.03 65.1198H847.537V64.6273H848.03V65.1198ZM848.792 65.1198H848.3V64.6273H848.792V65.1198ZM851.653 69.6046L850.539 69.9974C850.041 70.1733 849.496 69.9095 849.32 69.4112C849.298 69.3525 849.287 69.2938 849.276 69.2395L849.273 69.2236L848.997 67.9866C848.939 67.711 849.109 67.4413 849.384 67.3827C849.66 67.3241 849.929 67.4941 849.988 67.7696L850.07 68.139L850.627 67.9455L850.387 67.6583C850.205 67.4413 850.234 67.1248 850.451 66.943C850.668 66.7613 850.985 66.7906 851.166 67.0075L851.987 67.9866C852 67.9993 852.01 68.0151 852.018 68.0296L852.024 68.0385L852.028 68.0452C852.122 68.139 852.192 68.2562 852.239 68.3852C852.415 68.8835 852.151 69.4288 851.653 69.6046ZM853.195 67.9103C852.632 68.1097 852.016 67.8107 851.817 67.2479C851.618 66.6851 851.917 66.0695 852.48 65.8702C853.042 65.6708 853.658 65.9698 853.857 66.5326C854.051 67.0954 853.758 67.711 853.195 67.9103ZM841.786 66.4095C843.352 66.8492 844.26 68.479 843.821 70.0385C843.381 71.6038 841.751 72.5125 840.192 72.0728C838.632 71.6331 837.718 70.0033 838.157 68.4438C838.597 66.8785 840.221 65.9698 841.786 66.4095ZM836.938 84.1263H841.816C841.857 84.0031 841.927 83.8976 842.038 83.8214C842.038 83.8214 842.185 83.7159 842.443 83.54C842.373 82.6489 842.32 81.8281 842.343 81.2126V81.1891C841.898 81.0543 841.481 80.8725 841.1 80.6556C839.564 79.7821 838.837 78.4337 838.503 77.4546C838.163 76.4815 838.093 75.6079 838.087 75.0451C838.087 74.9455 838.087 74.881 838.093 74.8692C838.128 74.1716 838.697 73.6205 839.4 73.6205H839.465H839.471C840.186 73.6557 840.743 74.2654 840.713 74.9865V75.051C840.708 75.2738 840.749 75.8073 840.919 76.3818C841.007 76.6749 841.124 76.9798 841.294 77.2612C841.569 77.736 841.927 78.0937 842.378 78.3633C842.373 78.1523 842.367 77.9471 842.355 77.736C842.894 78.1523 843.527 78.5509 844.254 78.8968C844.419 78.9086 844.583 78.9144 844.759 78.9144C845.017 78.9144 845.286 78.8968 845.568 78.8734C845.761 78.4689 846.3 78.2109 847.004 78.2109C847.197 78.2109 847.391 78.2285 847.59 78.2695C847.813 78.3106 848.018 78.3751 848.206 78.4571C848.1 78.0937 847.795 77.7947 847.397 77.7185C845.052 77.267 843.592 76.1825 842.677 75.2093C842.296 74.7989 842.015 74.412 841.821 74.1012C841.646 73.5912 841.423 73.1867 841.13 72.9639C840.79 72.7001 840.502 72.4773 838.925 72.5711C835.836 72.7587 833.919 78.2813 833.672 84.2083C833.843 84.1556 834.018 84.1263 834.206 84.1263H836.938ZM847.637 92.2752C847.725 92.2225 848.276 91.8883 849.079 91.3489C851.407 91.2551 853.67 90.6396 855.81 89.5257C855.868 89.4937 855.927 89.4603 855.987 89.4269L855.988 89.4262L855.988 89.426C856.048 89.3923 856.109 89.3586 856.167 89.3264H862.317C862.604 89.3264 862.839 89.5609 862.839 89.8481V94.8606C862.839 95.1479 862.604 95.3824 862.317 95.3824H861.338V96.0801C861.338 96.3673 861.104 96.6018 860.816 96.6018H857.416C857.129 96.6018 856.894 96.3673 856.894 96.0801V95.3824H840.549C840.455 96.1739 839.799 96.8012 838.978 96.8305H838.925C838.093 96.8305 837.395 96.2032 837.301 95.3824H836.229V96.0801C836.229 96.3673 835.994 96.6018 835.707 96.6018H832.306C832.019 96.6018 831.785 96.3673 831.785 96.0801V95.3824H830.806C830.518 95.3824 830.284 95.1479 830.284 94.8606V91.2903C830.46 91.3372 830.642 91.3665 830.829 91.3665H845.826C846.418 91.9762 846.951 92.3632 847.332 92.3632C847.45 92.3632 847.555 92.328 847.637 92.2752ZM843.187 87.7904H834.194C834.024 87.7904 833.866 87.7669 833.714 87.7259C833.497 87.6672 833.297 87.5676 833.116 87.4386H830.829C829.815 87.4386 829 88.2594 829 89.2677C829 90.0885 829.539 90.7861 830.284 91.0148C830.454 91.0675 830.642 91.0968 830.829 91.0968H836.023H837.161H840.432H845.579C845.122 90.5927 844.636 89.9712 844.178 89.3146C843.826 88.8222 843.492 88.3004 843.187 87.7904ZM861.526 78.1816C861.971 77.2787 863.067 76.9035 863.976 77.3491C864.885 77.7947 865.26 78.891 864.809 79.7997L864.794 79.828C864.676 80.0586 863.918 81.5373 862.505 83.3641C861.004 85.3046 858.758 87.6614 855.681 89.2853C855.663 89.297 855.64 89.3088 855.616 89.3205C853.846 90.2409 851.788 90.9092 849.496 91.0675C850.193 90.5927 851.026 89.9947 851.899 89.3205C854.027 87.6731 856.378 85.5391 857.504 83.4696C857.674 83.3055 857.844 83.1356 858.008 82.9715L858.008 82.9713C860.248 80.679 861.479 78.2812 861.526 78.1816ZM860.629 74.0074C861.543 75.35 861.197 77.1791 859.855 78.0937C858.512 79.0082 856.683 78.6623 855.769 77.3198C854.854 75.9773 855.2 74.1481 856.542 73.2336C857.885 72.3131 859.714 72.6649 860.629 74.0074ZM834.2 87.5266C834.024 87.5266 833.854 87.4972 833.696 87.4445C833.689 87.4445 833.684 87.4422 833.677 87.4391C833.672 87.4372 833.667 87.435 833.661 87.4328C833.491 87.3683 833.332 87.2803 833.198 87.1689C832.846 86.8817 832.623 86.4478 832.623 85.9554C832.623 85.2812 833.051 84.7067 833.649 84.4839C833.819 84.4194 834.001 84.3842 834.194 84.3842H840.227H841.786C841.775 84.655 841.858 84.9363 841.902 85.0855L841.909 85.1112C842.05 85.586 842.32 86.1958 842.672 86.8524C842.724 86.9579 842.783 87.0634 842.842 87.1689C842.888 87.2569 842.935 87.3448 842.988 87.4328C842.997 87.4474 843.006 87.4635 843.014 87.4797C843.023 87.4958 843.032 87.5119 843.041 87.5266H834.2ZM851.46 89.3205C853.382 87.8549 855.54 85.9671 856.812 84.0911C856.988 83.8331 857.146 83.5693 857.287 83.3114C857.99 82.0099 858.178 80.7435 857.463 79.6707C856.038 77.5191 852.527 78.3985 849.226 79.9111C849.22 79.9052 849.213 79.9008 849.205 79.8964C849.198 79.892 849.191 79.8876 849.185 79.8817C849.044 80.1807 848.546 80.1866 848.37 80.1866C848.024 80.1866 847.561 80.128 847.104 80.0342C847.139 80.3801 847.039 80.7201 846.816 80.9956C846.815 80.9974 846.813 80.9997 846.811 81.0022C846.806 81.0081 846.801 81.015 846.793 81.0191C846.863 81.0074 846.934 81.0015 847.01 81.0015C847.227 81.0015 847.444 81.0543 847.637 81.1598C848.774 81.7812 849.818 82.0978 850.733 82.0978C851.407 82.0978 851.97 81.9395 852.509 81.5995C852.984 81.3005 853.3 80.9253 853.447 80.7318C853.547 80.597 853.605 80.5032 853.611 80.4856C853.834 80.0518 854.279 79.7821 854.772 79.7821C854.977 79.7821 855.182 79.8348 855.364 79.9228C855.675 80.0811 855.903 80.3507 856.015 80.6849C856.12 81.0191 856.097 81.3708 855.933 81.6816C855.798 81.9336 855.417 82.5727 854.69 83.2234C854.068 83.7804 852.732 84.7125 850.744 84.7125H850.727C849.367 84.7125 847.907 84.2904 846.377 83.4521C845.744 83.1062 845.509 82.3089 845.855 81.6757C845.902 81.5936 845.955 81.5233 846.013 81.4529L846.001 81.4555C845.977 81.4604 845.956 81.4646 845.931 81.4646C845.521 81.5057 845.122 81.5291 844.741 81.5291H844.729C844.342 81.5291 843.967 81.5057 843.604 81.4588C843.434 81.8809 843.34 82.3382 843.34 82.8248C843.34 82.9596 843.346 83.0944 843.363 83.2293C843.043 83.4394 842.778 83.6223 842.58 83.7589L842.579 83.759L842.579 83.7591L842.579 83.7592L842.455 83.8448C842.273 83.9738 842.173 84.0442 842.173 84.0442C842.138 84.0676 842.109 84.0969 842.091 84.1321C842.05 84.1966 842.033 84.2845 842.027 84.3959C842.015 84.7946 842.249 85.4629 842.631 86.2426C842.777 86.5416 842.947 86.8582 843.129 87.1807C843.176 87.2686 843.228 87.3565 843.281 87.4445C843.29 87.4591 843.299 87.4753 843.308 87.4914L843.321 87.5155L843.328 87.5285L843.334 87.5383L843.492 87.8021C843.809 88.318 844.149 88.8339 844.501 89.3264C844.981 90.0006 845.48 90.622 845.931 91.1086L845.947 91.126C846.029 91.2133 846.106 91.2954 846.183 91.3724C846.758 91.9352 847.233 92.2283 847.491 92.0642C847.491 92.0642 847.907 91.8121 848.569 91.3724L848.639 91.3261L848.693 91.2907L848.693 91.2904C848.781 91.232 848.875 91.17 848.974 91.1027C849.671 90.6279 850.539 90.024 851.46 89.3205ZM850.733 84.4428C849.513 84.4428 848.1 84.0852 846.512 83.2175C846.007 82.942 845.82 82.303 846.095 81.7929C846.371 81.2829 847.004 81.1012 847.514 81.3767C848.862 82.1154 849.918 82.3499 850.733 82.3499C851.565 82.3499 852.169 82.1154 852.65 81.8164C853.13 81.5174 853.465 81.1363 853.658 80.8784C853.758 80.7395 853.816 80.6427 853.837 80.608L853.84 80.6028V80.597C854.104 80.0869 854.731 79.8817 855.247 80.1455C855.763 80.4094 855.968 81.0367 855.704 81.5526C855.669 81.6288 855.311 82.3088 854.52 83.0182C853.74 83.7217 852.462 84.4428 850.75 84.4428H850.733ZM847.532 78.5216C847.79 78.5744 848.03 78.6565 848.235 78.762C848.399 78.8441 848.54 78.9379 848.646 79.0493L848.646 79.0492L848.646 79.0492C848.733 79.0141 848.821 78.9789 848.903 78.9379C850.31 78.293 851.161 77.185 851.682 76.0418C852.415 74.4354 852.48 72.747 852.48 72.2018V72.02L852.743 72.0083C852.743 72.0083 852.749 72.0786 852.749 72.2018C852.749 72.7704 852.685 74.4882 851.929 76.1531C851.401 77.3198 850.516 78.4689 849.079 79.1489C849.038 79.1665 848.999 79.1841 848.959 79.2017L848.959 79.2018C848.919 79.2193 848.88 79.2369 848.839 79.2544C848.868 79.3013 848.892 79.3482 848.915 79.3951L848.915 79.3951L848.915 79.3951L848.915 79.3951C848.962 79.5007 848.98 79.6121 848.962 79.7235V79.7352C848.915 79.9873 848.065 79.9462 847.256 79.7879C847.221 79.7791 847.186 79.7718 847.151 79.7645C847.115 79.7572 847.08 79.7498 847.045 79.741C847.042 79.7352 847.041 79.7308 847.039 79.7264C847.038 79.722 847.036 79.7176 847.033 79.7117C847.01 79.7176 846.981 79.7235 846.957 79.7235H846.945V79.7176L846.916 79.4655C846.852 79.36 846.764 79.2603 846.67 79.1782C846.564 79.0903 846.453 79.0141 846.324 78.9613C846.183 78.9027 846.037 78.8617 845.878 78.8558C846.148 78.5275 846.811 78.3809 847.532 78.5216ZM844.741 81.2653H844.753C845.122 81.2653 845.509 81.2477 845.914 81.2008C846.488 81.1422 846.904 80.6263 846.846 80.0518C846.843 80.0371 846.841 80.0224 846.84 80.0078L846.84 80.0077C846.838 79.9931 846.837 79.9785 846.834 79.9638C846.816 79.8759 846.793 79.7997 846.758 79.7234C846.752 79.7147 846.747 79.7044 846.743 79.6941C846.739 79.6839 846.734 79.6736 846.728 79.6648C846.629 79.4772 846.47 79.3307 846.289 79.231C846.13 79.1489 845.949 79.1079 845.755 79.1196H845.714H845.697L845.486 79.1372C845.28 79.1548 845.081 79.1665 844.893 79.1665H844.747C843.68 79.1665 842.924 78.9555 842.367 78.6623C842.332 78.6447 842.296 78.6271 842.267 78.6096C841.698 78.2871 841.323 77.865 841.053 77.396C840.766 76.9094 840.608 76.3642 840.526 75.9186C840.45 75.5141 840.438 75.1858 840.438 75.0451V74.9748C840.461 74.4002 840.016 73.9136 839.441 73.8843H839.435C838.861 73.8609 838.374 74.3064 838.345 74.881V75.0451C838.345 75.4145 838.38 76.3173 838.744 77.3667C839.107 78.4102 839.84 79.6355 841.223 80.427C841.564 80.6204 841.939 80.7846 842.343 80.9194C842.683 81.0308 843.058 81.1129 843.445 81.1715C843.486 81.1769 843.527 81.1836 843.568 81.1904C843.616 81.1982 843.665 81.2062 843.715 81.2125C844.049 81.2477 844.383 81.2653 844.741 81.2653Z" fill="white"/>
</g>
<g clip-path="url(#clip5_72_381)">
<path fill-rule="evenodd" clip-rule="evenodd" d="M983 110C999.569 110 1013 96.5685 1013 80C1013 63.4315 999.569 50 983 50C966.431 50 953 63.4315 953 80C953 96.5685 966.431 110 983 110ZM996.359 70.0136C996.375 70.0245 996.392 70.0355 996.414 70.052C996.765 70.3043 997.099 70.5676 997.412 70.8309C999.694 72.7781 1000.9 74.9997 1000.37 76.3765C1000.46 76.2997 1000.53 76.2119 1000.6 76.1187C1001.62 74.709 1000.63 72.1912 998.361 70.1013C998.385 70.0778 998.409 70.0542 998.433 70.0305L998.433 70.0304L998.433 70.0303L998.433 70.0303L998.433 70.0302L998.433 70.0301L998.434 70.03L998.434 70.0299L998.434 70.0299L998.434 70.0298L998.434 70.0297L998.434 70.0296L998.434 70.0296L998.434 70.0295L998.434 70.0294L998.434 70.0294C998.483 69.9816 998.533 69.933 998.58 69.8819C999.458 68.9714 1000.34 67.43 1000.49 65.1426L998.438 65C998.301 66.8376 997.659 67.8524 997.088 68.4612C996.957 68.5984 996.831 68.7135 996.71 68.8123C993.803 66.9034 990.687 66.5523 989.557 68.0663C989.897 67.9072 990.32 67.8249 990.808 67.8249C992.36 67.8249 994.434 68.6422 996.359 70.0136ZM992.739 75.1586C995.734 77.3088 998.937 77.9835 999.963 76.6835C999.966 76.679 999.969 76.6746 999.973 76.6701C999.976 76.6663 999.979 76.6626 999.982 76.6588L999.991 76.6477C999.994 76.6444 999.997 76.641 999.999 76.6377C1000 76.6365 1000 76.6353 1000 76.6341C1000.88 75.4164 999.645 72.9974 997.215 70.9404C996.979 70.7429 996.738 70.5454 996.48 70.3589C996.447 70.3344 996.416 70.3112 996.384 70.2881L996.384 70.2877L996.384 70.2876C996.352 70.2643 996.321 70.241 996.288 70.2163C993.518 68.2252 990.567 67.5011 989.327 68.4336C989.212 68.5214 989.108 68.6256 989.02 68.7408C988.043 70.1066 989.706 72.9754 992.739 75.1586ZM995.048 75.1366C994.779 75.5151 993.88 75.3286 993.046 74.7307C992.212 74.1328 991.752 73.3374 992.026 72.9644C992.295 72.586 993.194 72.7725 994.028 73.3704C994.862 73.9683 995.317 74.7581 995.048 75.1366ZM998.027 74.1822C998.86 74.7801 999.321 75.5754 999.047 75.9484C998.778 76.3269 997.879 76.1404 997.045 75.5425C996.211 74.9446 995.75 74.1493 996.025 73.7763C996.299 73.3978 997.193 73.5788 998.027 74.1822ZM993.979 70.2383C994.247 69.8598 995.147 70.0463 995.981 70.6442C996.814 71.2421 997.275 72.0374 997.001 72.4104C996.732 72.7889 995.833 72.6024 994.999 72.0045C994.171 71.4066 993.71 70.6167 993.979 70.2383ZM989.98 69.4264C990.249 69.0479 991.148 69.2344 991.982 69.8323C992.816 70.4302 993.276 71.2256 993.002 71.5986C992.733 71.9771 991.834 71.7906 991 71.1927C990.166 70.5948 989.706 69.7994 989.98 69.4264ZM980.951 89.9692H981.346V91.4996H980.786L980.951 89.9692ZM982.997 94.6094H980.512C980.633 95.125 981.061 95.5309 981.615 95.5912C982.267 95.6626 982.86 95.2347 982.997 94.6094ZM981.598 87.0178C981.675 87.2207 981.779 87.4017 981.911 87.5663H981.208L981.274 86.9849L981.274 86.9849C981.384 86.9958 981.494 87.0068 981.598 87.0178ZM982.136 84.0669C982.256 84.0175 982.393 83.9846 982.531 83.9846C982.668 83.9846 982.805 84.012 982.931 84.0669C983.118 84.1437 983.299 84.215 983.48 84.2808C983.683 84.3247 983.896 84.3576 984.121 84.385C984.291 84.407 984.472 84.4179 984.659 84.4289C984.867 84.4399 985.081 84.4454 985.312 84.4454C985.948 84.4454 986.573 84.4015 987.171 84.3411C987.177 84.3411 987.183 84.3403 987.188 84.3394C987.19 84.3391 987.191 84.3387 987.193 84.3384C987.2 84.337 987.207 84.3357 987.215 84.3357L987.177 84.0011V83.4799C987.16 83.4909 987.149 83.5019 987.133 83.5183C987.127 83.5238 987.127 83.5238 987.122 83.5238C986.935 83.6829 986.699 83.7707 986.453 83.7707C986.156 83.7707 985.871 83.6445 985.674 83.4196C985.493 83.2112 985.405 82.9479 985.421 82.6736C985.438 82.3993 985.564 82.147 985.772 81.966C986.03 81.7411 986.261 81.5217 986.464 81.3023C986.76 80.9841 987.001 80.6825 987.166 80.4082C987.166 80.4027 987.171 80.4027 987.171 80.4027V78.5871C987.303 78.7023 987.418 78.8284 987.5 78.9601C987.61 79.1356 987.67 79.3056 987.67 79.5305C987.67 79.7609 987.599 80.0791 987.341 80.5179C987.308 80.573 987.27 80.6306 987.231 80.6907L987.23 80.6907C987.211 80.7202 987.191 80.7504 987.171 80.7812C987.029 80.9841 986.848 81.2036 986.623 81.4449C986.42 81.6588 986.184 81.8837 985.91 82.1251C985.564 82.4268 985.531 82.9479 985.833 83.288C985.997 83.4745 986.222 83.5677 986.453 83.5677C986.645 83.5677 986.837 83.5019 986.996 83.3648C987.012 83.3511 987.028 83.336 987.045 83.321L987.045 83.3209L987.045 83.3208C987.062 83.3058 987.078 83.2907 987.094 83.277C987.122 83.2551 987.149 83.2276 987.171 83.2057C987.89 82.5529 988.405 81.9496 988.762 81.3626C989.14 80.7318 989.327 80.112 989.327 79.5305C989.327 78.9491 989.135 78.4335 988.872 78.0331C988.471 77.4297 987.934 77.0622 987.506 76.8208C987.098 76.5905 986.774 76.4851 986.717 76.4664L986.71 76.4643L986.645 76.4478C986.562 76.4204 986.469 76.3984 986.376 76.3984H986.134C985.679 76.8373 985.059 77.1006 984.385 77.1006C984.193 77.1006 984.001 77.0786 983.809 77.0347C983.353 76.9305 982.953 76.7056 982.635 76.3984H982.393C982.3 76.3984 982.207 76.4149 982.125 76.4478L982.059 76.4643L982.053 76.4663C981.973 76.4924 981.414 76.6759 980.808 77.1115C980.496 77.3364 980.166 77.6326 979.898 78.0331C979.634 78.4335 979.442 78.9491 979.442 79.5305C979.442 80.112 979.629 80.7318 980.007 81.3626C980.358 81.9496 980.874 82.5529 981.598 83.2057C981.612 83.2167 981.624 83.229 981.636 83.2413C981.649 83.2537 981.661 83.266 981.675 83.277C981.691 83.2907 981.708 83.3058 981.724 83.3209L981.724 83.3209C981.741 83.336 981.757 83.3511 981.774 83.3648C981.933 83.5019 982.125 83.5677 982.317 83.5677C982.52 83.5677 982.723 83.4964 982.876 83.3483C982.898 83.3264 982.92 83.3044 982.937 83.2825C983.035 83.1673 983.101 83.0302 983.123 82.893C983.172 82.6133 983.085 82.3171 982.854 82.1196C982.58 81.8782 982.344 81.6533 982.141 81.4394C981.916 81.2036 981.735 80.9787 981.593 80.7757C981.548 80.7129 981.509 80.6526 981.471 80.5948L981.471 80.5947L981.471 80.5945C981.453 80.5666 981.435 80.5392 981.417 80.5124C981.159 80.0736 981.088 79.7609 981.088 79.5305C981.088 79.3002 981.154 79.1246 981.269 78.9436C981.351 78.8175 981.461 78.6968 981.587 78.5871V80.4027C981.587 80.4027 981.587 80.4045 981.588 80.406C981.589 80.4072 981.59 80.4082 981.593 80.4082C981.757 80.6879 981.999 80.9896 982.295 81.3023C982.498 81.5162 982.728 81.7411 982.986 81.966C983.299 82.2348 983.403 82.6517 983.299 83.0247L984.187 83.6829L984.538 83.9407C984.566 83.9627 984.588 83.9901 984.604 84.023C984.62 84.0669 984.626 84.1108 984.62 84.1546C984.615 84.1821 984.604 84.2095 984.588 84.2314L984.527 84.3137C984.461 84.407 984.33 84.4234 984.237 84.3576L984.127 84.2753L983.035 83.469C982.843 83.661 982.58 83.7707 982.306 83.7707C982.059 83.7707 981.823 83.6829 981.636 83.5238L981.626 83.5129C981.609 83.5019 981.598 83.4909 981.587 83.4745V83.9901C981.772 84.0201 981.935 84.041 982.091 84.0612L982.136 84.0669ZM987.988 91.4996H987.325V89.9692H987.824L987.988 91.4996ZM987.155 95.5912C987.709 95.5309 988.142 95.125 988.257 94.6094H985.772C985.915 95.2347 986.502 95.6626 987.155 95.5912ZM994.039 87.4677C995.306 87.2867 996.189 86.1129 996.013 84.8458C995.838 83.5787 994.664 82.6901 993.391 82.8711C992.124 83.0521 991.241 84.2259 991.417 85.493C991.598 86.7601 992.772 87.6433 994.039 87.4677ZM974.363 87.4019C976.475 86.8589 978.269 86.6943 979.668 86.6943C980.293 86.6943 980.836 86.7272 981.297 86.7711C981.461 86.7875 981.615 86.804 981.752 86.8259C981.829 87.0892 981.966 87.3416 982.185 87.561H990.161C990.869 87.0124 991.137 86.2171 991.039 85.5808C990.901 84.6867 989.711 84.1875 988.663 84.3905C988.485 84.4088 988.296 84.43 988.099 84.452L988.098 84.4521L988.097 84.4523L988.096 84.4523L988.096 84.4523C987.822 84.483 987.534 84.5154 987.237 84.5441C987.218 84.5468 987.197 84.5482 987.177 84.5495C987.165 84.5503 987.154 84.5511 987.143 84.5521C987.134 84.5529 987.125 84.5538 987.117 84.555C986.338 84.6263 985.498 84.6812 984.681 84.6373C984.67 84.6373 984.659 84.6359 984.648 84.6346L984.648 84.6346C984.637 84.6332 984.626 84.6318 984.615 84.6318L984.681 84.6483C985.433 84.8348 986.124 84.9335 986.705 84.9719C986.896 84.9874 987.082 84.9932 987.25 84.9984H987.25L987.281 84.9993H987.473C988.265 84.9993 988.766 84.91 988.84 84.8968L988.85 84.8951C988.921 84.8787 988.987 84.8732 989.058 84.8732C989.547 84.8732 989.969 85.2188 990.068 85.696C990.183 86.25 989.826 86.7985 989.267 86.9192C989.196 86.9356 988.537 87.0618 987.506 87.0673H987.473C986.798 87.0673 985.915 87.0124 984.911 86.815C984.582 86.7492 984.237 86.6724 983.88 86.5736C983.321 86.42 982.728 86.2226 982.125 85.9648C981.604 85.7453 981.357 85.1365 981.576 84.6154C981.593 84.577 981.615 84.5386 981.637 84.5002C981.697 84.4014 981.768 84.3137 981.851 84.2369C981.768 84.2259 981.681 84.2149 981.593 84.2095H981.571C981.028 84.1546 980.386 84.1162 979.662 84.1162C978.066 84.1162 976.047 84.3027 973.716 84.9061C973.025 85.0816 972.613 85.7892 972.789 86.4749C972.937 87.0563 973.464 87.4403 974.034 87.4403C974.149 87.4458 974.254 87.4293 974.363 87.4019ZM983.419 84.4781C983.644 84.5604 983.869 84.6372 984.089 84.703C984.228 84.7469 984.367 84.7859 984.505 84.8249L984.506 84.8249C984.575 84.8444 984.645 84.8639 984.714 84.884C985.01 84.9553 985.301 85.0157 985.575 85.0595C986.228 85.1692 986.82 85.2131 987.314 85.2186H987.484C988.34 85.2186 988.872 85.1144 988.899 85.1089C989.344 85.0157 989.782 85.3009 989.876 85.7452C989.969 86.1895 989.684 86.6283 989.239 86.7216C989.196 86.7326 988.543 86.8642 987.495 86.8642H987.484C986.782 86.8642 985.899 86.8039 984.901 86.6064C984.582 86.5406 984.253 86.4638 983.913 86.3705C983.365 86.2169 982.8 86.025 982.213 85.7781C981.807 85.6081 981.609 85.1418 981.763 84.7304C981.766 84.7249 981.767 84.7195 981.768 84.714C981.769 84.7108 981.77 84.7077 981.771 84.7045L981.772 84.7008L981.774 84.6975C981.856 84.511 981.999 84.3629 982.169 84.2806C982.372 84.1764 982.624 84.16 982.855 84.2587L982.95 84.2972L982.951 84.2973C983.109 84.361 983.264 84.4233 983.419 84.4781ZM985.74 94.4066H990.501V94.3627C990.501 93.5015 991.203 92.7994 992.064 92.7994C992.925 92.7994 993.627 93.5015 993.627 94.3627V94.4066H994.834C995.119 94.4066 995.35 94.1762 995.35 93.891V92.2235C995.35 91.9382 995.119 91.7079 994.834 91.7079H987.122V89.7661H998.147C998.432 89.7661 998.663 89.5357 998.663 89.2504V88.2905C998.663 88.0053 998.432 87.7749 998.147 87.7749H970.529C970.244 87.7749 970.013 88.0053 970.013 88.2905V89.2504C970.013 89.5357 970.244 89.7661 970.529 89.7661H981.554V91.7079H973.842C973.557 91.7079 973.326 91.9382 973.326 92.2235V93.891C973.326 94.1762 973.557 94.4066 973.842 94.4066H975.049V94.3627C975.049 93.5015 975.751 92.7994 976.612 92.7994C977.473 92.7994 978.175 93.5015 978.175 94.3627V94.4066H985.74ZM976.612 93.0078C977.358 93.0078 977.967 93.6167 977.967 94.3627C977.967 94.366 977.967 94.3698 977.966 94.374C977.965 94.3836 977.963 94.3951 977.967 94.4066C977.967 94.4779 977.956 94.5492 977.945 94.615C977.824 95.2458 977.276 95.723 976.612 95.723C975.948 95.723 975.394 95.2458 975.279 94.615L975.277 94.6007C975.267 94.5349 975.257 94.4731 975.257 94.4066V94.3627C975.257 93.6167 975.866 93.0078 976.612 93.0078ZM993.419 94.3627C993.419 93.6167 992.81 93.0078 992.064 93.0078C991.318 93.0078 990.709 93.6167 990.709 94.3627V94.4066C990.709 94.4731 990.719 94.5348 990.729 94.6007L990.731 94.615C990.847 95.2458 991.401 95.723 992.064 95.723C992.728 95.723 993.277 95.2458 993.397 94.615C993.408 94.5492 993.419 94.4779 993.419 94.4066C993.415 94.3951 993.417 94.3836 993.418 94.374L993.419 94.3693C993.419 94.3669 993.419 94.3647 993.419 94.3627ZM985.476 76.5082C985.465 76.4739 985.454 76.4396 985.443 76.4039C985.416 76.3216 985.394 76.2393 985.372 76.157C985.63 76.0583 986.063 75.8663 986.475 75.603C986.316 75.9212 986.091 76.19 985.822 76.4039C985.723 76.4807 985.619 76.552 985.509 76.6123C985.498 76.5767 985.487 76.5424 985.476 76.5082ZM983.485 75.9077L983.485 75.9075C983.49 75.8897 983.496 75.8719 983.501 75.8554C983.529 75.7677 983.622 75.7183 983.715 75.7402C984.16 75.8499 984.62 75.8499 985.059 75.7402C985.147 75.7183 985.246 75.7677 985.273 75.8554C985.279 75.8719 985.284 75.8897 985.29 75.9075C985.292 75.9172 985.295 75.9268 985.298 75.9362C985.301 75.9442 985.303 75.9521 985.306 75.9597C985.46 75.8993 985.668 75.8061 985.898 75.6909C986.129 75.5702 986.381 75.4276 986.606 75.2575C986.615 75.229 986.623 75.2005 986.631 75.171L986.631 75.1709L986.631 75.1708L986.631 75.1702C986.637 75.1488 986.643 75.1268 986.65 75.1039C986.743 74.7145 986.727 74.3195 986.628 73.9575C986.288 74.0727 984.999 74.4896 984.39 74.4896C983.787 74.4896 982.498 74.0727 982.152 73.9575C982.141 73.9904 982.135 74.0179 982.13 74.0508C982.031 74.4622 982.053 74.879 982.168 75.252C982.393 75.4221 982.64 75.5702 982.876 75.6854C983.106 75.8061 983.315 75.8993 983.468 75.9597C983.474 75.9433 983.479 75.9255 983.485 75.9077ZM983.37 76.2805C983.357 76.3216 983.345 76.3627 983.331 76.4039C983.309 76.4697 983.288 76.541 983.266 76.6123C983.156 76.552 983.052 76.4807 982.953 76.4039C982.679 76.19 982.459 75.9157 982.306 75.603C982.723 75.8663 983.15 76.0583 983.408 76.157C983.394 76.1982 983.382 76.2393 983.37 76.2805ZM982.218 73.7598C982.547 73.8695 983.82 74.2809 984.39 74.2809C984.961 74.2809 986.233 73.8695 986.562 73.7598C986.612 73.7433 986.639 73.7324 986.639 73.7324C986.639 73.7324 986.634 73.6062 986.623 73.4033C986.584 72.7176 986.447 71.1598 985.975 70.8197C985.372 70.3809 984.385 70.3809 984.385 70.3809C984.385 70.3809 983.397 70.3809 982.794 70.8197C982.328 71.1598 982.191 72.7066 982.152 73.3978C982.141 73.6007 982.136 73.7324 982.136 73.7324C982.136 73.7324 982.163 73.7433 982.218 73.7598ZM977.49 81.9768H972.739C972.833 81.7848 972.871 81.5709 972.838 81.3569H977.49V81.9768ZM967.825 75.252C968.11 75.8005 968.609 76.2338 969.251 76.4148C969.827 76.5794 970.419 76.5081 970.918 76.2558L967.825 75.252ZM969.618 73.8753C969.388 73.9795 969.168 74.0783 968.96 74.166ZM968.96 74.166L971.944 75.2576ZM971.944 75.2576C972.015 75.1205 972.076 74.9724 972.119 74.8133ZM972.119 74.8133C972.29 74.2044 972.202 73.5791 971.917 73.0635ZM971.917 73.0635C971.912 73.0635 971.907 73.0646 971.901 73.0658ZM971.901 73.0658C971.895 73.0673 971.887 73.069 971.878 73.069ZM971.878 73.069C971.32 73.1123 970.436 73.5088 969.648 73.8621ZM970.298 75.7458L970.65 74.9889L968.664 74.2812C968.247 74.4458 967.89 74.561 967.638 74.561C967.63 74.561 967.623 74.5596 967.616 74.5583L967.616 74.5583C967.609 74.5569 967.602 74.5555 967.594 74.5555C967.622 74.7091 967.66 74.8572 967.715 74.9998L970.271 75.8171C970.271 75.8107 970.28 75.7892 970.288 75.7714L970.288 75.7714L970.288 75.7714C970.292 75.7627 970.295 75.7549 970.297 75.7502C970.298 75.748 970.298 75.7465 970.298 75.7458ZM966.974 89.5084C966.969 87.7037 966.662 86.5299 966.442 85.9155C965.795 85.7235 965.214 85.2573 965.049 84.1109C964.89 81.807 965.104 80.4631 965.899 78.4171C966.486 76.9306 967.781 76.5137 968.653 76.7715C969.52 77.0348 969.854 78.28 969.509 79.2893C969.459 79.4977 969.404 79.7226 969.344 79.953C969.212 79.7446 969.097 79.4868 969.015 79.207C968.938 78.9657 968.9 78.7572 968.878 78.6201C968.871 78.5759 968.866 78.5359 968.862 78.5027L968.862 78.5027C968.86 78.4824 968.858 78.4646 968.856 78.45C968.85 78.4336 968.85 78.4226 968.85 78.4116C968.817 77.8741 968.362 77.4517 967.825 77.4517H967.753C967.479 77.4682 967.227 77.5943 967.046 77.8028C966.865 78.0057 966.777 78.2745 966.793 78.5488V78.5543V78.5597V78.5762C966.832 78.9547 966.941 79.7171 967.314 80.529C967.605 81.1543 967.973 81.6425 968.439 82.0155C968.565 82.1197 968.702 82.2075 968.839 82.2897C968.719 83.0467 968.653 83.8201 968.719 84.5497V84.6539C969.053 85.4493 969.552 87.0565 969.552 89.5084C969.552 90.951 969.382 92.6844 968.911 94.7194C968.774 95.3173 968.241 95.7177 967.655 95.7177C967.561 95.7177 967.463 95.7068 967.364 95.6848C966.667 95.5257 966.239 94.8291 966.398 94.138C966.826 92.2839 966.974 90.7481 966.974 89.5084ZM968.675 78.6586L968.667 78.6053C968.659 78.5536 968.653 78.5121 968.653 78.4831C968.653 78.4702 968.651 78.4611 968.649 78.4536C968.649 78.4506 968.648 78.4478 968.648 78.4451C968.647 78.4431 968.647 78.4411 968.647 78.4392V78.4337C968.614 77.9784 968.225 77.6328 967.77 77.6657C967.314 77.6987 966.969 78.0881 967.002 78.5434L967.003 78.557C967.013 78.6836 967.083 79.5282 967.506 80.4523C967.731 80.935 968.06 81.4506 968.576 81.862C968.669 81.9388 968.773 82.0101 968.878 82.0759C969.344 82.3612 969.925 82.5477 970.578 82.5477H970.595C971.055 82.5477 971.544 82.4654 972.07 82.2953C972.251 82.235 972.399 82.1198 972.498 81.9717C972.619 81.7962 972.668 81.5713 972.624 81.3519C972.619 81.3189 972.613 81.286 972.602 81.2531C972.465 80.8198 971.999 80.5784 971.565 80.7156C971.176 80.8417 970.852 80.8856 970.589 80.8856C970.123 80.8801 969.843 80.754 969.591 80.562C969.47 80.4687 969.366 80.3481 969.267 80.2164C969.059 79.9367 968.905 79.5856 968.806 79.262C968.746 79.0316 968.702 78.8122 968.675 78.6586ZM967.38 74.2591C967.336 74.1987 967.298 74.0396 967.27 73.8257C967.26 73.7599 967.254 73.6831 967.249 73.6063C967.205 72.9426 967.292 71.9552 967.693 71.4341C968.411 70.4961 969.936 70.6223 970.726 71.0227C971.73 71.5384 972.405 72.8219 971.856 72.8658C971.845 72.8658 971.834 72.8672 971.823 72.8685L971.823 72.8685C971.812 72.8699 971.801 72.8713 971.79 72.8713C971.192 72.9431 970.328 73.3287 969.52 73.6898L969.52 73.6898L969.52 73.6899C969.218 73.825 968.923 73.9566 968.653 74.0671C968.61 74.0829 968.568 74.0996 968.526 74.1161L968.526 74.1161C968.467 74.1397 968.409 74.1629 968.351 74.1823C968.022 74.3029 967.748 74.3742 967.567 74.3523C967.484 74.3413 967.419 74.3139 967.38 74.2591ZM974.5 81.0994H976.82C976.935 81.0994 977.029 81.0062 977.029 80.891V79.9091C977.029 79.7939 976.935 79.7007 976.82 79.7007H974.5C974.385 79.7007 974.292 79.7939 974.292 79.9091V80.891C974.297 81.0062 974.39 81.0994 974.5 81.0994Z" fill="white"/>
</g>
<g clip-path="url(#clip6_72_381)">
<path fill-rule="evenodd" clip-rule="evenodd" d="M1119 110C1135.57 110 1149 96.5685 1149 80C1149 63.4315 1135.57 50 1119 50C1102.43 50 1089 63.4315 1089 80C1089 96.5685 1102.43 110 1119 110ZM1136.87 70.2775C1136.94 70.2775 1137 70.3408 1137 70.4098C1137 70.8932 1136.65 71.296 1136.21 71.3766C1136.23 71.4571 1136.23 71.5434 1136.23 71.6355C1136.23 71.7564 1136.22 71.8657 1136.2 71.9693H1136.32C1136.51 71.9693 1136.67 72.1246 1136.67 72.3145V75.0767C1136.67 75.2665 1136.51 75.4219 1136.32 75.4219H1136.01V75.5658H1136.07C1136.17 75.5658 1136.25 75.6463 1136.25 75.7442C1136.25 75.842 1136.17 75.9225 1136.07 75.9225H1135.53C1135.43 75.9225 1135.35 75.842 1135.35 75.7442C1135.35 75.6463 1135.43 75.5658 1135.53 75.5658H1135.59V75.4219H1135.28C1135.09 75.4219 1134.93 75.2665 1134.93 75.0767V72.3145C1134.93 72.1246 1135.09 71.9693 1135.28 71.9693H1135.4C1135.38 71.8657 1135.37 71.7564 1135.37 71.6355C1135.37 71.5492 1135.37 71.4686 1135.38 71.3938H1134.57V88.1909C1136.1 88.26 1136.56 88.9045 1136.59 88.9793L1136.63 89.0426V89.3821C1136.78 89.4684 1136.89 89.6353 1136.89 89.8309C1136.89 90.1129 1136.66 90.3431 1136.38 90.3431C1136.1 90.3431 1135.87 90.1129 1135.87 89.8309C1135.87 89.6468 1135.96 89.4914 1136.1 89.3994V89.2037L1136.09 89.1922C1136.04 89.1462 1135.96 89.0771 1135.83 89.0081C1135.6 88.8872 1135.2 88.7491 1134.56 88.7146V89.4396C1134.67 89.5375 1134.74 89.6756 1134.74 89.8367C1134.74 90.1187 1134.51 90.3488 1134.23 90.3488C1133.95 90.3488 1133.72 90.1187 1133.72 89.8367C1133.72 89.6526 1133.82 89.4972 1133.96 89.4051V88.7203C1132.93 88.7779 1132.55 89.0886 1132.43 89.2095V89.4166C1132.56 89.5087 1132.65 89.6641 1132.65 89.8367C1132.65 90.1187 1132.42 90.3488 1132.14 90.3488C1131.86 90.3488 1131.63 90.1187 1131.63 89.8367C1131.63 89.6353 1131.75 89.4627 1131.91 89.3763V89.0483L1131.95 88.985C1131.98 88.9102 1132.44 88.2715 1133.95 88.1967V71.3938H1133.13C1133.14 71.4686 1133.15 71.5492 1133.15 71.6355C1133.15 71.7564 1133.14 71.8657 1133.12 71.9693H1133.24C1133.43 71.9693 1133.58 72.1246 1133.58 72.3145V75.0767C1133.58 75.2665 1133.43 75.4219 1133.24 75.4219H1132.93V75.5658H1132.99C1133.09 75.5658 1133.17 75.6463 1133.17 75.7442C1133.17 75.842 1133.09 75.9225 1132.99 75.9225H1132.79C1132.76 76.4059 1132.64 77.8215 1132.11 79.2428C1131.46 80.9922 1130.18 82.7703 1127.71 82.7703C1127.02 82.7703 1126.23 82.6322 1125.35 82.3214C1124.87 82.684 1124.35 83.0235 1123.78 83.3227C1123.58 83.432 1123.37 83.5299 1123.16 83.6277V81.136L1123.19 81.1188C1123.52 80.9577 1123.78 80.785 1123.98 80.6181C1124.66 80.0772 1124.91 79.5191 1124.96 79.4097C1125.13 78.9724 1124.92 78.466 1124.48 78.2876C1124.38 78.2473 1124.27 78.2243 1124.16 78.2243C1123.81 78.2243 1123.49 78.4315 1123.36 78.7422C1123.36 78.7432 1123.36 78.7479 1123.35 78.7559L1123.35 78.756L1123.35 78.7562L1123.35 78.7562L1123.35 78.7563C1123.33 78.7941 1123.27 78.9032 1123.16 79.0357V78.1322C1123.16 78.0689 1123.14 78.0114 1123.12 77.9539C1123.72 77.4705 1124.56 77.3209 1125.04 77.7697C1125.55 78.2588 1125.8 79.2716 1125.14 80.2671C1125.31 80.1118 1125.48 79.9506 1125.64 79.7895C1127.17 78.2473 1128.02 76.6246 1128.09 76.475L1128.1 76.4635C1128.31 76.0376 1128.83 75.8593 1129.25 76.0722C1129.68 76.2851 1129.86 76.803 1129.65 77.2288C1129.63 77.2691 1129.13 78.2703 1128.16 79.5248C1127.51 80.3765 1126.63 81.349 1125.51 82.2121C1126.33 82.4941 1127.06 82.6149 1127.7 82.6149C1129.48 82.6092 1130.61 81.6597 1131.34 80.457C1132.07 79.2543 1132.39 77.7985 1132.52 76.826C1132.58 76.4289 1132.6 76.1182 1132.62 75.9341H1132.44C1132.34 75.9341 1132.26 75.8535 1132.26 75.7557C1132.26 75.6578 1132.34 75.5773 1132.44 75.5773H1132.5V75.4334H1132.19C1132 75.4334 1131.84 75.2781 1131.84 75.0882V72.326C1131.84 72.1362 1132 71.9808 1132.19 71.9808H1132.31C1132.29 71.8772 1132.28 71.7679 1132.28 71.647C1132.28 71.555 1132.29 71.4686 1132.3 71.3881C1131.84 71.3018 1131.49 70.899 1131.49 70.4156C1131.49 70.3408 1131.55 70.2832 1131.63 70.2832C1131.7 70.2832 1131.76 70.3465 1131.76 70.4156C1131.76 70.7781 1132.02 71.0831 1132.37 71.1406C1132.4 71.0486 1132.45 70.9738 1132.51 70.9105C1132.56 70.8587 1132.63 70.8184 1132.71 70.8184C1132.79 70.8184 1132.87 70.8587 1132.92 70.9105C1132.98 70.9623 1133.01 71.0256 1133.05 71.1004C1133.05 71.1118 1133.06 71.1291 1133.06 71.1463L1133.06 71.1464H1133.94V69.305C1133.94 69.1324 1134.08 69 1134.25 69C1134.42 69 1134.55 69.1381 1134.55 69.305V71.1464H1135.44C1135.47 71.0543 1135.52 70.9738 1135.58 70.9105C1135.63 70.8587 1135.7 70.8184 1135.79 70.8184C1135.87 70.8184 1135.94 70.8587 1135.99 70.9105C1136.05 70.9623 1136.09 71.0256 1136.12 71.1004C1136.12 71.1061 1136.12 71.1119 1136.13 71.1176C1136.13 71.1234 1136.13 71.1291 1136.13 71.1349C1136.48 71.0716 1136.74 70.7724 1136.74 70.4098C1136.74 70.335 1136.8 70.2775 1136.87 70.2775ZM1132.72 71.0716C1132.72 71.0716 1132.71 71.0716 1132.69 71.0888C1132.68 71.1004 1132.67 71.1176 1132.66 71.1406H1132.79C1132.78 71.1176 1132.76 71.1004 1132.75 71.0888C1132.73 71.0716 1132.72 71.0716 1132.72 71.0716ZM1133.41 75.0882V73.4597C1133.41 73.4597 1133.28 73.5345 1132.81 73.5517V73.7531H1133.02V73.8567H1132.81V74.1272H1133.02V74.225H1132.81V74.4955H1133.02V74.599H1132.81V74.8522H1132.63V74.599H1132.41V74.4955H1132.63V74.225H1132.41V74.1214H1132.63V73.851H1132.41V73.7474H1132.63V73.546C1132.16 73.5345 1132.03 73.4597 1132.03 73.4597V75.0882C1132.03 75.186 1132.1 75.2608 1132.2 75.2608H1133.24C1133.33 75.2608 1133.41 75.186 1133.41 75.0882ZM1132.85 71.975C1132.87 71.883 1132.89 71.7679 1132.89 71.6413C1132.89 71.5809 1132.89 71.5233 1132.88 71.4686L1132.88 71.4684C1132.88 71.445 1132.88 71.422 1132.87 71.3996H1132.57C1132.55 71.4744 1132.55 71.555 1132.55 71.6413C1132.54 71.7621 1132.56 71.883 1132.59 71.975H1132.85ZM1135.79 71.0716C1135.79 71.0716 1135.78 71.0716 1135.76 71.0888C1135.75 71.1004 1135.73 71.1176 1135.72 71.1406H1135.86C1135.84 71.1176 1135.83 71.1004 1135.81 71.0888C1135.8 71.0716 1135.79 71.0716 1135.79 71.0716ZM1136.48 75.0882V72.6828C1136.48 72.6828 1136.34 72.7576 1135.87 72.7806V73.0166H1136.09V73.1202H1135.87V73.3906H1136.09V73.4884H1135.87V73.7589H1136.09V73.8625H1135.87V74.1329H1136.09V74.2308H1135.87V74.5012H1136.09V74.6048H1135.87V74.858H1135.7V74.6048H1135.48V74.5012H1135.7V74.2308H1135.48V74.1272H1135.7V73.8567H1135.48V73.7531H1135.7V73.4769H1135.48V73.3791H1135.7V73.1086H1135.48V73.0051H1135.7V72.7691C1135.22 72.7576 1135.1 72.6828 1135.1 72.6828V75.0882C1135.1 75.186 1135.17 75.2608 1135.27 75.2608H1136.3C1136.4 75.2608 1136.48 75.186 1136.48 75.0882ZM1135.61 71.6413C1135.61 71.7621 1135.63 71.883 1135.65 71.975H1135.92C1135.95 71.883 1135.96 71.7679 1135.96 71.6413C1135.96 71.555 1135.95 71.4744 1135.94 71.3996H1135.64C1135.62 71.4744 1135.61 71.555 1135.61 71.6413ZM1106.67 83.6337C1106.67 83.1561 1107.05 82.7705 1107.53 82.7705H1110.14V84.4968H1107.53C1107.05 84.4968 1106.67 84.1113 1106.67 83.6337ZM1116.34 86.3728V87.1036H1109.88C1109.64 87.1036 1109.45 87.2992 1109.45 87.5352V88.9335C1109.45 89.1694 1109.64 89.3651 1109.88 89.3651H1110.89V89.3305C1110.89 88.6112 1111.48 88.0243 1112.2 88.0243C1112.92 88.0243 1113.5 88.6112 1113.5 89.3305V89.3651H1123.83V89.3305C1123.83 88.6112 1124.42 88.0243 1125.14 88.0243C1125.86 88.0243 1126.45 88.6112 1126.45 89.3305V89.3651H1127.46C1127.7 89.3651 1127.89 89.1694 1127.89 88.9335V87.5352C1127.89 87.2992 1127.7 87.1036 1127.46 87.1036H1121V86.3728H1130.23C1130.46 86.3728 1130.66 86.1771 1130.66 85.9412V85.1356C1130.66 84.8996 1130.46 84.704 1130.23 84.704H1123.15V85.1528C1123.15 85.4406 1122.92 85.6707 1122.64 85.6707L1110.66 85.665C1110.37 85.665 1110.14 85.4348 1110.14 85.1471V84.6982H1107.1C1106.86 84.6982 1106.67 84.8939 1106.67 85.1298V85.9354C1106.67 86.062 1106.73 86.1714 1106.81 86.2519C1106.88 86.321 1106.98 86.367 1107.1 86.367L1116.34 86.3728ZM1112.2 88.1909C1112.83 88.1909 1113.33 88.6973 1113.33 89.3245V89.3591C1113.33 89.4166 1113.33 89.4742 1113.31 89.5317C1113.22 90.0611 1112.76 90.4582 1112.2 90.4582C1111.64 90.4582 1111.18 90.0611 1111.08 89.5317C1111.07 89.4742 1111.06 89.4166 1111.06 89.3591V89.3245C1111.06 88.6973 1111.57 88.1909 1112.2 88.1909ZM1126.27 89.3245C1126.27 88.6973 1125.76 88.1909 1125.13 88.1909C1124.51 88.1909 1124 88.6973 1124 89.3245V89.3591C1124 89.4166 1124.01 89.4742 1124.02 89.5317C1124.12 90.0611 1124.58 90.4582 1125.13 90.4582C1125.69 90.4582 1126.15 90.0611 1126.25 89.5317C1126.26 89.4742 1126.27 89.4166 1126.27 89.3591V89.3245ZM1127.3 76.9468C1128.05 76.1757 1128.03 74.9501 1127.26 74.202C1126.49 73.4597 1125.26 73.4769 1124.51 74.248C1123.77 75.0191 1123.79 76.2448 1124.56 76.9929C1125.33 77.7352 1126.56 77.7179 1127.3 76.9468ZM1122.98 81.2279C1122.49 81.4408 1121.87 81.6134 1121.09 81.6652C1120.93 81.6767 1120.76 81.6825 1120.58 81.6825H1120.57C1120.1 81.6825 1119.6 81.6422 1119.08 81.5616C1118.96 81.5444 1118.86 81.5041 1118.76 81.4465C1118.66 81.389 1118.58 81.3084 1118.51 81.2164C1118.51 81.2147 1118.51 81.2131 1118.51 81.2116C1118.51 81.2083 1118.5 81.2052 1118.5 81.2022L1118.5 81.2021C1118.49 81.1917 1118.49 81.1824 1118.48 81.1703C1118.37 80.9919 1118.33 80.7848 1118.36 80.5719C1118.42 80.1518 1118.78 79.841 1119.21 79.841C1119.25 79.841 1119.3 79.8468 1119.34 79.8526C1119.77 79.9216 1120.18 79.9561 1120.56 79.9561C1120.71 79.9561 1120.85 79.9504 1121 79.9389C1121.01 79.9389 1121.03 79.9389 1121.04 79.9331C1121.13 79.9274 1121.22 79.9159 1121.3 79.9044L1121.3 79.9043C1121.91 79.8238 1122.42 79.6339 1122.83 79.3404C1122.88 79.3027 1122.93 79.2598 1122.97 79.2214L1122.97 79.2214L1122.98 79.2138V78.1377C1122.98 78.1205 1122.98 78.1032 1122.98 78.086C1122.95 77.9191 1122.81 77.7925 1122.64 77.7925C1122.64 77.7925 1110.32 81.6307 1110.32 81.8206V85.1466C1110.32 85.3365 1110.47 85.4919 1110.66 85.4919H1122.64C1122.83 85.4919 1122.98 85.3365 1122.98 85.1466V81.2279ZM1121.5 80.0486C1122.18 79.9335 1122.62 79.7034 1122.92 79.479C1122.95 79.4674 1122.97 79.4502 1122.97 79.4444C1123.03 79.3983 1123.08 79.3523 1123.13 79.3102L1123.13 79.3102L1123.14 79.2948C1123.4 79.0531 1123.5 78.846 1123.51 78.8287C1123.66 78.4834 1124.05 78.3166 1124.4 78.4604C1124.75 78.6043 1124.93 79.0071 1124.78 79.3581L1124.78 79.3666C1124.73 79.4669 1124.5 79.9849 1123.86 80.4975C1123.67 80.6586 1123.43 80.814 1123.14 80.9578C1123.1 80.9809 1123.05 81.0039 1123 81.0269C1122.99 81.0269 1122.99 81.03 1122.98 81.0339L1122.97 81.0363L1122.97 81.0384C1122.92 81.0614 1122.86 81.0843 1122.8 81.1073L1122.8 81.1074C1122.3 81.3146 1121.68 81.4585 1120.95 81.4987C1120.82 81.5045 1120.7 81.5103 1120.58 81.5103H1120.56C1120.12 81.5103 1119.63 81.47 1119.1 81.3894C1119.02 81.3779 1118.95 81.3549 1118.89 81.3204C1118.82 81.2858 1118.75 81.234 1118.7 81.1707C1118.56 81.0211 1118.49 80.814 1118.53 80.6011C1118.59 80.227 1118.94 79.9681 1119.32 80.0256C1119.78 80.1004 1120.2 80.1292 1120.57 80.1292C1120.6 80.1292 1120.63 80.1278 1120.66 80.1263C1120.7 80.1249 1120.73 80.1234 1120.76 80.1234C1120.93 80.1177 1121.1 80.1004 1121.26 80.0832M1121.5 80.0486C1121.48 80.0523 1121.45 80.0565 1121.43 80.0608ZM1107.42 75.301C1107.42 75.3355 1107.43 75.3643 1107.45 75.3873C1107.45 75.3988 1107.46 75.4046 1107.46 75.4103L1107.46 75.4103C1107.49 75.4333 1107.51 75.4506 1107.54 75.4564C1107.55 75.4564 1107.55 75.4578 1107.55 75.4592C1107.55 75.4607 1107.56 75.4621 1107.56 75.4621H1107.58C1107.61 75.4621 1107.64 75.4564 1107.66 75.4391C1107.68 75.4333 1107.68 75.4276 1107.69 75.4218C1107.71 75.3988 1107.73 75.3758 1107.73 75.3413C1107.73 75.3355 1107.74 75.3298 1107.74 75.3298V75.3125C1107.74 75.278 1107.73 75.2492 1107.72 75.2262C1107.71 75.2147 1107.7 75.2089 1107.7 75.2032C1107.68 75.1801 1107.65 75.1629 1107.62 75.1571C1107.62 75.1571 1107.61 75.1557 1107.61 75.1542C1107.61 75.1528 1107.6 75.1514 1107.6 75.1514H1107.58C1107.55 75.1514 1107.52 75.1571 1107.5 75.1744C1107.49 75.1801 1107.48 75.1859 1107.47 75.1916C1107.45 75.2147 1107.43 75.2377 1107.43 75.2722C1107.43 75.278 1107.43 75.2837 1107.42 75.2837V75.301ZM1107.6 75.0653C1107.57 75.0538 1107.56 75.0193 1107.55 74.979C1107.54 74.9329 1107.54 74.8754 1107.54 74.8121V74.8064C1107.56 74.674 1107.62 74.5704 1107.68 74.5819C1107.74 74.5877 1107.77 74.7028 1107.75 74.8351V74.8409C1107.74 74.9042 1107.72 74.9617 1107.7 75.002C1107.68 75.0423 1107.65 75.0653 1107.63 75.0711H1107.61C1107.61 75.0711 1107.6 75.0711 1107.6 75.0653ZM1107.5 75.5631L1107.5 75.5631C1107.51 75.5588 1107.52 75.5545 1107.53 75.5487C1107.53 75.5487 1107.53 75.548 1107.53 75.5471C1107.53 75.5467 1107.53 75.5463 1107.53 75.5458C1107.54 75.5444 1107.54 75.543 1107.54 75.543H1107.53C1107.51 75.5487 1107.49 75.5602 1107.48 75.5775C1107.49 75.5718 1107.5 75.5674 1107.5 75.5631ZM1107.36 75.0595C1107.33 75.0134 1107.27 74.9904 1107.21 74.9789C1107.12 74.8638 1107.1 74.7487 1107.14 74.72C1107.19 74.6854 1107.29 74.743 1107.37 74.8523L1107.38 74.8581C1107.41 74.9098 1107.44 74.9616 1107.45 75.0077C1107.46 75.048 1107.46 75.0825 1107.45 75.1055L1107.44 75.117C1107.44 75.117 1107.43 75.1184 1107.43 75.1199C1107.43 75.1213 1107.43 75.1228 1107.42 75.1228H1107.4C1107.4 75.117 1107.4 75.1113 1107.39 75.1055C1107.39 75.0882 1107.38 75.071 1107.36 75.0595ZM1107.73 75.4908C1107.73 75.4908 1107.73 75.4923 1107.72 75.4937C1107.72 75.4952 1107.72 75.4966 1107.72 75.4966L1107.7 75.5081C1107.7 75.5081 1107.7 75.5139 1107.7 75.5196C1107.7 75.5196 1107.71 75.5196 1107.72 75.5254C1107.73 75.5311 1107.74 75.5369 1107.76 75.5426C1107.77 75.5311 1107.8 75.5196 1107.81 75.5139C1107.79 75.4908 1107.76 75.4851 1107.73 75.4908ZM1107.91 75.2781C1107.95 75.2724 1108.01 75.2666 1108.07 75.2781C1108.07 75.2781 1108.08 75.2781 1108.08 75.2777C1108.08 75.2771 1108.08 75.2757 1108.08 75.2724C1108.2 75.2954 1108.29 75.3414 1108.3 75.3932C1108.26 75.4105 1108.23 75.4393 1108.2 75.4795C1108.16 75.4853 1108.11 75.4853 1108.05 75.4795H1108.04C1107.98 75.468 1107.92 75.4508 1107.88 75.4277C1107.84 75.4105 1107.82 75.3817 1107.81 75.3587V75.3414C1107.81 75.3357 1107.81 75.3299 1107.82 75.3242C1107.83 75.3011 1107.87 75.2896 1107.91 75.2781ZM1107.31 75.4277L1107.3 75.4392C1107.31 75.4507 1107.32 75.4622 1107.34 75.4795C1107.34 75.4795 1107.34 75.4852 1107.34 75.491L1107.38 75.5428C1107.39 75.514 1107.4 75.4852 1107.39 75.4622C1107.39 75.4593 1107.39 75.4564 1107.39 75.4536C1107.39 75.4507 1107.39 75.4478 1107.39 75.4449L1107.38 75.4334C1107.36 75.4277 1107.34 75.4219 1107.31 75.4277ZM1107.79 75.0593C1107.81 75.0191 1107.85 74.9788 1107.91 74.9385C1107.91 74.9354 1107.91 74.9339 1107.91 74.9333C1107.91 74.9327 1107.91 74.9327 1107.91 74.9327C1108.01 74.8579 1108.13 74.8292 1108.16 74.8752C1108.2 74.9212 1108.14 75.0248 1108.03 75.1054L1108.03 75.1111C1107.97 75.1457 1107.92 75.1744 1107.88 75.1859C1107.84 75.1974 1107.8 75.1974 1107.78 75.1859L1107.77 75.1744C1107.77 75.1715 1107.77 75.1687 1107.76 75.1658C1107.76 75.1629 1107.76 75.16 1107.76 75.1572C1107.76 75.1284 1107.77 75.0939 1107.79 75.0593ZM1104.33 70.0705C1105.39 70.2546 1106.1 71.2559 1105.92 72.3147C1105.74 73.3735 1104.74 74.0813 1103.68 73.9029C1102.62 73.7188 1101.91 72.7175 1102.09 71.6587C1102.27 70.5999 1103.27 69.8921 1104.33 70.0705ZM1102.2 75.9169C1102.28 76.2219 1102.51 77.016 1103.11 77.8504C1103.42 78.2992 1103.8 78.6733 1104.2 78.9725C1104.18 79.5537 1104.21 80.1349 1104.31 80.6816C1104.34 80.975 1104.35 81.1995 1104.33 81.3778L1104.33 89.3765C1104.34 89.9749 1103.85 90.4583 1103.26 90.4583C1102.66 90.464 1102.17 89.9807 1102.17 89.3822L1102.17 81.913C1101.75 81.7404 1101.4 81.3721 1101.21 80.647C1100.87 78.7423 1100.94 77.603 1101.42 75.8306C1101.78 74.5416 1102.82 74.0813 1103.57 74.2194C1104.11 74.3172 1104.46 74.8639 1104.54 75.4911C1104.58 75.6004 1104.63 75.7328 1104.71 75.8709C1104.87 76.1413 1105.1 76.4521 1105.46 76.7283C1105.4 76.8146 1105.39 76.9009 1105.43 76.9872C1105.48 77.1081 1105.62 77.1426 1105.79 77.1023C1105.77 77.275 1105.83 77.4073 1105.95 77.4476C1106.01 77.4706 1106.07 77.4648 1106.13 77.4361C1106.2 77.4015 1106.25 77.3382 1106.29 77.275L1106.29 77.2807C1106.4 77.4073 1106.53 77.4591 1106.65 77.4015C1106.69 77.3843 1106.71 77.3555 1106.74 77.321C1106.78 77.2519 1106.79 77.1599 1106.76 77.0505C1106.8 77.062 1106.84 77.0678 1106.88 77.062C1106.96 77.0505 1107.03 77.0045 1107.08 76.9585C1107.14 77.1196 1107.26 77.2059 1107.38 77.1886C1107.51 77.1656 1107.59 77.0505 1107.6 76.8779C1107.67 76.9067 1107.74 76.9297 1107.83 76.9182C1107.87 76.9067 1107.91 76.8894 1107.94 76.8664C1107.95 77.039 1108.03 77.1541 1108.16 77.1714C1108.29 77.1886 1108.39 77.1023 1108.46 76.9469L1108.39 77.5454C1108.63 77.6547 1108.79 77.8964 1108.79 78.1726C1108.79 78.3568 1108.72 78.5237 1108.6 78.6445C1108.54 78.4834 1108.45 78.3453 1108.32 78.2417C1108.17 78.1208 1107.98 78.0518 1107.78 78.0518C1107.74 78.0518 1107.7 78.0564 1107.66 78.0616L1107.66 78.0616L1107.65 78.0633C1107.42 78.0978 1107.19 78.1151 1106.98 78.1151C1106.87 78.1151 1106.77 78.1093 1106.66 78.0978C1106.21 78.0575 1105.81 77.9367 1105.45 77.7238C1105 77.4591 1104.67 77.0908 1104.44 76.7455C1104.35 76.6074 1104.27 76.4693 1104.21 76.3485C1104.08 76.1011 1103.99 75.8766 1103.95 75.7385C1103.92 75.6637 1103.91 75.6062 1103.89 75.5659C1103.89 75.5571 1103.89 75.55 1103.89 75.5439C1103.89 75.5341 1103.89 75.527 1103.88 75.5199C1103.81 75.1919 1103.56 74.9444 1103.24 74.8696C1103.18 74.8581 1103.11 74.8466 1103.04 74.8466C1102.98 74.8466 1102.92 74.8581 1102.85 74.8696C1102.63 74.9214 1102.43 75.0537 1102.31 75.2494C1102.19 75.445 1102.15 75.6752 1102.2 75.9054V75.9169ZM1106.1 76.6421C1106.1 76.6478 1106.11 76.6536 1106.11 76.6536C1106.11 76.6565 1106.11 76.6579 1106.11 76.6594C1106.11 76.6608 1106.12 76.6622 1106.12 76.6651C1106.13 76.6939 1106.16 76.7111 1106.19 76.7284C1106.19 76.7299 1106.19 76.7311 1106.19 76.732C1106.2 76.7328 1106.2 76.7335 1106.2 76.7342C1106.2 76.7356 1106.21 76.737 1106.21 76.7399C1106.24 76.7457 1106.28 76.7457 1106.31 76.7342C1106.31 76.7342 1106.32 76.7284 1106.32 76.7284C1106.32 76.7284 1106.33 76.7227 1106.33 76.7227C1106.36 76.7054 1106.38 76.6824 1106.39 76.6536C1106.39 76.6478 1106.39 76.6435 1106.39 76.6392C1106.39 76.6349 1106.4 76.6306 1106.4 76.6248C1106.4 76.5961 1106.4 76.5615 1106.39 76.5328C1106.39 76.527 1106.39 76.5212 1106.39 76.5212C1106.39 76.5184 1106.39 76.5169 1106.38 76.5155C1106.38 76.5141 1106.38 76.5126 1106.38 76.5097C1106.36 76.481 1106.34 76.4637 1106.31 76.4464C1106.31 76.4436 1106.3 76.4421 1106.3 76.4407C1106.29 76.4392 1106.29 76.4378 1106.28 76.4349C1106.25 76.4292 1106.22 76.4292 1106.19 76.4407C1106.19 76.4407 1106.18 76.4464 1106.18 76.4464C1106.17 76.4464 1106.17 76.4522 1106.17 76.4522C1106.14 76.4695 1106.12 76.4925 1106.11 76.5212C1106.11 76.527 1106.11 76.5313 1106.1 76.5356C1106.1 76.54 1106.1 76.5443 1106.1 76.55C1106.09 76.5788 1106.09 76.6133 1106.1 76.6421ZM1106.16 76.3658C1106.16 76.3715 1106.15 76.3773 1106.15 76.3773C1106.14 76.3773 1106.13 76.3773 1106.12 76.383C1106.09 76.383 1106.06 76.3658 1106.03 76.337C1106 76.3025 1105.96 76.2564 1105.93 76.1989C1105.93 76.1989 1105.93 76.1931 1105.93 76.1931C1105.9 76.1298 1105.88 76.0665 1105.88 76.0205C1105.94 76.0435 1106 76.0435 1106.08 76.032C1106.09 76.0493 1106.1 76.0723 1106.12 76.0953V76.1068C1106.12 76.1701 1106.13 76.2219 1106.16 76.2679C1106.17 76.2708 1106.17 76.2737 1106.17 76.2766C1106.17 76.2795 1106.17 76.2823 1106.17 76.2852C1106.18 76.3197 1106.17 76.3485 1106.16 76.3658ZM1106.46 76.8376L1106.46 76.8375C1106.43 76.8088 1106.4 76.7915 1106.37 76.7915C1106.37 76.7915 1106.36 76.7915 1106.36 76.7973C1106.35 76.7973 1106.35 76.803 1106.35 76.8088C1106.33 76.826 1106.32 76.8606 1106.33 76.9066C1106.33 76.9469 1106.35 76.9872 1106.36 77.0332L1106.38 77.0677C1106.38 77.0677 1106.38 77.0735 1106.39 77.0735C1106.45 77.1943 1106.54 77.2691 1106.59 77.2461C1106.64 77.2231 1106.63 77.1022 1106.58 76.9814V76.9756C1106.55 76.9517 1106.54 76.9306 1106.52 76.9102L1106.52 76.9102L1106.52 76.9102L1106.52 76.9102L1106.52 76.9101L1106.52 76.9101C1106.51 76.9012 1106.51 76.8924 1106.5 76.8836C1106.49 76.8663 1106.47 76.8491 1106.46 76.8376ZM1106.22 76.9122C1106.22 76.9582 1106.21 77.0158 1106.19 77.0791C1106.19 77.0791 1106.19 77.0848 1106.2 77.0848C1106.19 77.1021 1106.19 77.1193 1106.18 77.1308C1106.13 77.2287 1106.06 77.2977 1106.02 77.2805C1105.97 77.2632 1105.95 77.1596 1105.99 77.0445C1105.99 77.0416 1105.99 77.0373 1105.99 77.033C1105.99 77.0287 1106 77.0244 1106 77.0215V77.0158C1106.02 76.9525 1106.05 76.9007 1106.08 76.8661C1106.1 76.8316 1106.13 76.8086 1106.16 76.8086H1106.17C1106.18 76.8115 1106.18 76.8129 1106.18 76.8143C1106.19 76.8158 1106.19 76.8172 1106.19 76.8201C1106.21 76.8374 1106.22 76.8661 1106.22 76.9122ZM1105.59 76.9122C1105.61 76.9525 1105.68 76.9582 1105.78 76.9295C1105.8 76.925 1105.82 76.9171 1105.84 76.9085L1105.86 76.9007C1105.86 76.9007 1105.86 76.9007 1105.86 76.8949C1105.92 76.8662 1105.97 76.8316 1106 76.7971C1106.03 76.7626 1106.05 76.7338 1106.05 76.7108C1106.05 76.705 1106.05 76.6993 1106.04 76.6935C1106.04 76.6878 1106.04 76.682 1106.03 76.682C1106.01 76.6648 1105.98 76.659 1105.93 76.6648C1105.89 76.6705 1105.83 76.6878 1105.77 76.7108C1105.77 76.7108 1105.77 76.7108 1105.77 76.7165C1105.7 76.7511 1105.64 76.7914 1105.62 76.8316C1105.59 76.8604 1105.58 76.8892 1105.59 76.9122ZM1106.58 76.7988C1106.56 76.7866 1106.54 76.7766 1106.53 76.7629C1106.5 76.7341 1106.47 76.7054 1106.47 76.6766V76.6593C1106.47 76.6564 1106.47 76.6536 1106.47 76.6507C1106.47 76.6488 1106.47 76.6469 1106.48 76.645C1106.48 76.644 1106.48 76.643 1106.48 76.6421C1106.49 76.6248 1106.51 76.619 1106.53 76.6133C1106.54 76.6162 1106.54 76.6176 1106.55 76.619C1106.56 76.6205 1106.57 76.6219 1106.57 76.6248L1106.57 76.6248C1106.6 76.6305 1106.63 76.6363 1106.66 76.6363C1106.66 76.6478 1106.66 76.6593 1106.65 76.6708C1106.64 76.7053 1106.63 76.7341 1106.63 76.7629L1106.63 76.7629V76.7802V76.8204C1106.62 76.8204 1106.61 76.8174 1106.61 76.8134L1106.6 76.8106L1106.6 76.8089L1106.58 76.7988ZM1105.75 76.5268H1105.76C1105.82 76.5498 1105.88 76.5556 1105.93 76.5556C1105.97 76.5556 1106 76.5441 1106.02 76.5268C1106.02 76.5239 1106.02 76.521 1106.02 76.5182C1106.02 76.5168 1106.03 76.5154 1106.03 76.5139C1106.03 76.5125 1106.03 76.511 1106.03 76.5095V76.4923C1106.03 76.4693 1106.01 76.4405 1105.97 76.4117C1105.94 76.3829 1105.89 76.3542 1105.82 76.3311H1105.82C1105.69 76.2909 1105.58 76.2966 1105.55 76.3542C1105.53 76.406 1105.62 76.4808 1105.75 76.5268ZM1106.44 75.5774C1106.44 75.5774 1106.43 75.5717 1106.43 75.5659C1106.42 75.5314 1106.42 75.5026 1106.43 75.4738C1106.43 75.4681 1106.43 75.4638 1106.43 75.4595C1106.43 75.4551 1106.44 75.4508 1106.44 75.4451C1106.45 75.4163 1106.47 75.3933 1106.5 75.376C1106.5 75.376 1106.5 75.3703 1106.51 75.3703C1106.51 75.3703 1106.51 75.3645 1106.52 75.3645C1106.55 75.353 1106.58 75.353 1106.61 75.3588C1106.62 75.3616 1106.62 75.3631 1106.63 75.3645C1106.63 75.366 1106.63 75.3674 1106.64 75.3703C1106.67 75.3875 1106.69 75.4048 1106.71 75.4336C1106.71 75.4364 1106.71 75.4379 1106.71 75.4393C1106.71 75.4401 1106.71 75.4409 1106.71 75.4419C1106.71 75.4427 1106.71 75.4437 1106.71 75.4451C1106.71 75.4451 1106.72 75.4508 1106.72 75.4566C1106.73 75.4854 1106.73 75.5199 1106.73 75.5487C1106.72 75.5544 1106.72 75.5587 1106.72 75.563C1106.72 75.5674 1106.72 75.5717 1106.71 75.5774C1106.7 75.6062 1106.69 75.6292 1106.66 75.6465C1106.66 75.6465 1106.65 75.6522 1106.65 75.6522C1106.65 75.6522 1106.64 75.658 1106.63 75.658C1106.61 75.6695 1106.57 75.6695 1106.54 75.6637C1106.54 75.6609 1106.53 75.6594 1106.53 75.658C1106.52 75.6566 1106.52 75.6551 1106.51 75.6522C1106.48 75.635 1106.46 75.6177 1106.44 75.5889C1106.44 75.5861 1106.44 75.5846 1106.44 75.5832C1106.44 75.5817 1106.44 75.5803 1106.44 75.5774ZM1106.27 75.1169C1106.3 75.1744 1106.33 75.2205 1106.37 75.255C1106.4 75.2838 1106.43 75.301 1106.46 75.301C1106.46 75.301 1106.47 75.301 1106.47 75.2953C1106.48 75.2953 1106.48 75.2895 1106.48 75.2838C1106.5 75.2665 1106.51 75.232 1106.5 75.1859C1106.5 75.1399 1106.48 75.0824 1106.46 75.0248C1106.46 75.0248 1106.46 75.0191 1106.45 75.0191C1106.39 74.8982 1106.3 74.8234 1106.25 74.8464C1106.2 74.8695 1106.2 74.9903 1106.26 75.1111C1106.27 75.1111 1106.27 75.1169 1106.27 75.1169ZM1106.64 75.2725C1106.62 75.2552 1106.61 75.2265 1106.61 75.1804C1106.61 75.1344 1106.62 75.0769 1106.63 75.0078V75.002C1106.68 74.8754 1106.76 74.7891 1106.81 74.8064C1106.85 74.8237 1106.87 74.887 1106.86 74.9733L1106.86 74.9877C1106.85 75.0133 1106.84 75.0422 1106.84 75.0711V75.0769C1106.81 75.1402 1106.78 75.1919 1106.75 75.2265C1106.73 75.2552 1106.71 75.2725 1106.69 75.2783C1106.69 75.284 1106.68 75.284 1106.67 75.284H1106.66C1106.65 75.2811 1106.65 75.2797 1106.65 75.2783L1106.65 75.2783C1106.65 75.2768 1106.64 75.2754 1106.64 75.2725ZM1106.48 75.7271C1106.46 75.7271 1106.43 75.7501 1106.4 75.7846C1106.38 75.8191 1106.35 75.8709 1106.32 75.9342V75.94C1106.31 75.9802 1106.3 76.0263 1106.3 76.0608V76.1241C1106.31 76.1644 1106.32 76.1989 1106.35 76.2047C1106.4 76.2219 1106.47 76.1414 1106.52 76.0263C1106.5 75.9802 1106.48 75.94 1106.48 75.8939V75.8536C1106.48 75.8469 1106.49 75.8402 1106.49 75.8346C1106.49 75.8323 1106.49 75.8302 1106.49 75.8284C1106.49 75.827 1106.49 75.8259 1106.49 75.8249C1106.5 75.8019 1106.51 75.7788 1106.52 75.7558L1106.53 75.7501L1106.52 75.7443C1106.52 75.7414 1106.52 75.74 1106.52 75.7386C1106.51 75.7371 1106.51 75.7357 1106.51 75.7328C1106.5 75.7271 1106.49 75.7271 1106.48 75.7271ZM1106.8 75.4048C1106.79 75.3991 1106.79 75.3933 1106.79 75.3876C1106.79 75.3588 1106.8 75.33 1106.84 75.2897L1106.84 75.2897C1106.85 75.2782 1106.86 75.2609 1106.88 75.2494C1106.91 75.2264 1106.94 75.2092 1106.97 75.1919C1106.97 75.1861 1106.98 75.1861 1106.98 75.1861C1107.03 75.1574 1107.08 75.1459 1107.13 75.1401C1107.19 75.1344 1107.23 75.1459 1107.24 75.1746C1107.25 75.1919 1107.25 75.2092 1107.24 75.2322C1107.24 75.2379 1107.23 75.2423 1107.23 75.2466C1107.23 75.2509 1107.22 75.2552 1107.22 75.261C1107.2 75.2897 1107.18 75.3127 1107.14 75.3358C1107.13 75.3415 1107.12 75.3487 1107.11 75.3559C1107.09 75.3631 1107.08 75.3703 1107.07 75.376C1107.07 75.3818 1107.07 75.3818 1107.07 75.3818C1107.03 75.3991 1107 75.4163 1106.96 75.4221L1106.95 75.4256C1106.93 75.43 1106.92 75.4336 1106.9 75.4336H1106.9C1106.88 75.4336 1106.85 75.4336 1106.83 75.4278C1106.82 75.4278 1106.81 75.4221 1106.81 75.4163L1106.8 75.4106L1106.8 75.4048ZM1106.09 75.6292C1106.02 75.6638 1105.97 75.7098 1105.94 75.7501C1105.92 75.7789 1105.91 75.8076 1105.93 75.8307C1105.95 75.8767 1106.04 75.8767 1106.15 75.8364C1106.16 75.8335 1106.16 75.8307 1106.17 75.8278C1106.18 75.8249 1106.19 75.822 1106.19 75.8191C1106.19 75.8191 1106.2 75.8191 1106.2 75.8134C1106.25 75.7846 1106.3 75.7501 1106.33 75.7156C1106.36 75.681 1106.38 75.6523 1106.38 75.6292C1106.38 75.6235 1106.38 75.6177 1106.38 75.612C1106.38 75.6062 1106.37 75.6005 1106.36 75.6005C1106.35 75.5832 1106.31 75.5775 1106.27 75.5832C1106.22 75.589 1106.16 75.6062 1106.1 75.6292H1106.09ZM1106.86 75.6895C1106.86 75.6881 1106.86 75.6866 1106.86 75.6866C1106.84 75.6694 1106.82 75.6521 1106.81 75.6291L1106.81 75.6291C1106.81 75.6176 1106.8 75.6061 1106.8 75.5945V75.5773C1106.8 75.5768 1106.8 75.5764 1106.8 75.576C1106.8 75.5735 1106.81 75.5711 1106.81 75.5687L1106.81 75.5686C1106.81 75.5658 1106.81 75.5629 1106.81 75.56C1106.82 75.5485 1106.84 75.5428 1106.86 75.537C1106.88 75.5312 1106.89 75.5312 1106.91 75.5312H1106.94C1106.94 75.5374 1106.94 75.5435 1106.93 75.5498C1106.93 75.5535 1106.93 75.5572 1106.93 75.561C1106.92 75.5748 1106.92 75.5895 1106.92 75.6061C1106.91 75.6176 1106.91 75.6233 1106.91 75.6291L1106.91 75.6291C1106.9 75.6521 1106.9 75.6751 1106.9 75.7039C1106.9 75.7007 1106.89 75.6992 1106.88 75.6976L1106.88 75.6976C1106.88 75.6963 1106.87 75.6949 1106.87 75.6924C1106.87 75.6924 1106.87 75.6909 1106.86 75.6895ZM1106.08 75.4448H1106.09C1106.15 75.4678 1106.21 75.4735 1106.25 75.4735C1106.3 75.4735 1106.33 75.462 1106.35 75.4448C1106.35 75.4419 1106.35 75.439 1106.35 75.4361C1106.35 75.4333 1106.35 75.4304 1106.36 75.4275V75.4102C1106.36 75.3872 1106.33 75.3584 1106.3 75.3297C1106.27 75.3009 1106.21 75.2721 1106.15 75.2491H1106.14C1106.02 75.2088 1105.9 75.2146 1105.88 75.2721C1105.87 75.3239 1105.95 75.4045 1106.08 75.4448ZM1108.15 76.2331C1108.15 76.1986 1108.17 76.1756 1108.19 76.1526C1108.2 76.1497 1108.2 76.1468 1108.2 76.144C1108.21 76.1411 1108.21 76.1382 1108.22 76.1353C1108.24 76.1181 1108.27 76.1123 1108.3 76.1123H1108.32C1108.32 76.1123 1108.33 76.1137 1108.33 76.1152C1108.33 76.1166 1108.33 76.1181 1108.34 76.1181C1108.37 76.1238 1108.39 76.1411 1108.42 76.1641C1108.42 76.1698 1108.43 76.1756 1108.44 76.1871C1108.45 76.2101 1108.46 76.2389 1108.46 76.2734V76.2907C1108.46 76.2907 1108.45 76.2964 1108.45 76.3022C1108.45 76.3367 1108.43 76.3597 1108.41 76.3828C1108.4 76.3885 1108.39 76.3943 1108.38 76.4C1108.36 76.4173 1108.33 76.423 1108.3 76.423H1108.28C1108.28 76.423 1108.27 76.4216 1108.27 76.4202C1108.27 76.4187 1108.27 76.4173 1108.26 76.4173C1108.23 76.4115 1108.2 76.3943 1108.18 76.3713L1108.18 76.3712C1108.18 76.3655 1108.17 76.3597 1108.16 76.3482C1108.15 76.3252 1108.14 76.2964 1108.14 76.2619V76.2447C1108.15 76.2447 1108.15 76.2389 1108.15 76.2331ZM1108.43 75.5542C1108.42 75.5485 1108.42 75.5485 1108.41 75.5485C1108.38 75.5427 1108.34 75.5772 1108.31 75.6348C1108.3 75.6751 1108.28 75.7211 1108.27 75.7729V75.7787C1108.26 75.8419 1108.27 75.8995 1108.27 75.9455C1108.29 75.9858 1108.3 76.0203 1108.32 76.0318C1108.33 76.0376 1108.33 76.0376 1108.34 76.0376H1108.35C1108.38 76.0318 1108.41 76.0088 1108.42 75.9685C1108.45 75.9283 1108.46 75.8707 1108.48 75.8074V75.8017C1108.49 75.6808 1108.47 75.5772 1108.43 75.5542ZM1108.33 76.6013C1108.33 76.6416 1108.34 76.6819 1108.33 76.7337V76.7682V76.774C1108.31 76.9063 1108.25 77.0099 1108.19 76.9984C1108.14 76.9926 1108.11 76.8776 1108.12 76.7452V76.7395C1108.13 76.6992 1108.14 76.6646 1108.15 76.6359C1108.16 76.6129 1108.16 76.5956 1108.18 76.5783C1108.19 76.538 1108.22 76.515 1108.25 76.5093H1108.26C1108.27 76.5093 1108.27 76.5093 1108.28 76.515C1108.3 76.5265 1108.31 76.5611 1108.33 76.6013ZM1108.09 75.8133C1108.06 75.7731 1108.03 75.7443 1108 75.7213C1107.95 75.681 1107.9 75.6637 1107.87 75.681C1107.88 75.7328 1107.88 75.7903 1107.87 75.8479C1107.87 75.8536 1107.87 75.8594 1107.87 75.8594C1107.88 75.8824 1107.9 75.9112 1107.92 75.9342C1107.92 75.9342 1107.92 75.9399 1107.92 75.9399V75.9457C1107.99 75.9629 1108.04 75.986 1108.08 76.0262C1108.08 76.0273 1108.08 76.0283 1108.08 76.0294C1108.08 76.0301 1108.08 76.0309 1108.08 76.0316C1108.09 76.036 1108.1 76.0412 1108.1 76.0493C1108.11 76.0562 1108.11 76.0653 1108.12 76.0752L1108.12 76.0752C1108.12 76.0817 1108.13 76.0885 1108.13 76.0953H1108.14C1108.14 76.0953 1108.15 76.0939 1108.15 76.0924C1108.15 76.091 1108.16 76.0895 1108.16 76.0895L1108.17 76.078C1108.18 76.055 1108.18 76.0262 1108.17 75.986V75.9802C1108.16 75.9227 1108.14 75.8709 1108.09 75.8133ZM1108.55 76.4863C1108.59 76.5093 1108.63 76.5496 1108.67 76.6014C1108.67 76.6014 1108.67 76.6071 1108.68 76.6014C1108.75 76.7107 1108.78 76.8258 1108.73 76.8603C1108.69 76.8949 1108.58 76.8373 1108.5 76.728L1108.5 76.7222C1108.46 76.6704 1108.44 76.6186 1108.42 76.5726C1108.41 76.5323 1108.41 76.4978 1108.42 76.4748L1108.44 76.4633C1108.44 76.4633 1108.44 76.4618 1108.44 76.4604C1108.45 76.4593 1108.45 76.4582 1108.45 76.4578C1108.45 76.4576 1108.45 76.4575 1108.45 76.4575C1108.48 76.4518 1108.52 76.4633 1108.55 76.4863ZM1108.79 76.2391C1108.73 76.2276 1108.67 76.2333 1108.63 76.2391C1108.58 76.2506 1108.55 76.2621 1108.54 76.2851C1108.53 76.2909 1108.53 76.2966 1108.53 76.3024V76.3196C1108.54 76.3426 1108.56 76.3714 1108.6 76.3887C1108.64 76.4117 1108.7 76.429 1108.76 76.4405H1108.77C1108.9 76.4577 1109.02 76.429 1109.02 76.3714C1109.03 76.3139 1108.93 76.2563 1108.8 76.2333C1108.8 76.2386 1108.8 76.2403 1108.8 76.2405C1108.8 76.2406 1108.8 76.2405 1108.8 76.2403L1108.8 76.2401C1108.8 76.2397 1108.79 76.2391 1108.79 76.2391ZM1108.04 76.3887C1108.06 76.3887 1108.08 76.3887 1108.1 76.4002C1108.1 76.4002 1108.11 76.4059 1108.11 76.4117L1108.11 76.4117C1108.11 76.4146 1108.11 76.4174 1108.12 76.4203C1108.12 76.4232 1108.12 76.4261 1108.12 76.429C1108.12 76.452 1108.11 76.4865 1108.09 76.521C1108.08 76.544 1108.06 76.5613 1108.04 76.5843L1108.04 76.5843L1108.04 76.5843L1108.01 76.6073C1108.01 76.5958 1108.01 76.5843 1108 76.5728C1108 76.5699 1108 76.5671 1108 76.5642C1108 76.5613 1108 76.5584 1108 76.5556C1107.99 76.5496 1107.99 76.5433 1107.98 76.5368C1107.98 76.5307 1107.98 76.5245 1107.97 76.5182L1107.97 76.5181C1107.96 76.5052 1107.95 76.4923 1107.95 76.4807C1107.94 76.475 1107.94 76.4707 1107.93 76.4664C1107.93 76.462 1107.93 76.4577 1107.92 76.452L1107.92 76.452C1107.95 76.4405 1107.98 76.429 1108 76.4117C1108.01 76.4088 1108.01 76.4045 1108.02 76.4002L1108.02 76.4001C1108.03 76.3958 1108.03 76.3915 1108.04 76.3887ZM1108.62 75.8994C1108.57 75.9397 1108.53 75.98 1108.51 76.0203C1108.49 76.0548 1108.48 76.0893 1108.48 76.1181C1108.48 76.121 1108.48 76.1239 1108.48 76.1267C1108.49 76.1296 1108.49 76.1325 1108.49 76.1354L1108.5 76.1469C1108.52 76.1584 1108.56 76.1584 1108.6 76.1469C1108.64 76.1354 1108.69 76.1066 1108.75 76.0721L1108.75 76.0663C1108.86 75.9857 1108.92 75.8822 1108.88 75.8361C1108.85 75.7901 1108.73 75.8189 1108.62 75.8937C1108.63 75.8968 1108.63 75.8983 1108.63 75.8989C1108.63 75.8994 1108.63 75.8994 1108.62 75.8994ZM1107.4 76.2561C1107.41 76.2561 1107.41 76.2619 1107.41 76.2676V76.2849C1107.41 76.3136 1107.4 76.3424 1107.39 76.3712C1107.38 76.3741 1107.38 76.3784 1107.38 76.3827C1107.38 76.3856 1107.38 76.3886 1107.37 76.391C1107.37 76.3922 1107.37 76.3933 1107.37 76.3942C1107.35 76.4172 1107.32 76.4345 1107.29 76.4402C1107.28 76.446 1107.28 76.446 1107.27 76.446H1107.26C1107.23 76.446 1107.2 76.4402 1107.17 76.423C1107.17 76.4201 1107.16 76.4172 1107.16 76.4143L1107.16 76.4143C1107.15 76.4115 1107.15 76.4086 1107.15 76.4057C1107.12 76.3827 1107.11 76.3539 1107.1 76.3251C1107.09 76.3251 1107.09 76.3194 1107.09 76.3136V76.2964C1107.09 76.2676 1107.1 76.2388 1107.12 76.2101C1107.12 76.2072 1107.12 76.2029 1107.13 76.1986C1107.13 76.1942 1107.13 76.1899 1107.13 76.187C1107.16 76.164 1107.19 76.1468 1107.22 76.141C1107.22 76.1353 1107.23 76.1353 1107.23 76.1353H1107.25C1107.28 76.1353 1107.31 76.141 1107.34 76.1583C1107.34 76.1611 1107.34 76.1626 1107.34 76.164C1107.35 76.1655 1107.35 76.1669 1107.35 76.1698L1107.36 76.1755C1107.38 76.1986 1107.4 76.2273 1107.4 76.2561ZM1107.29 75.8593C1107.29 75.8363 1107.29 75.8133 1107.28 75.7903V75.7845C1107.28 75.7811 1107.28 75.7772 1107.28 75.7731C1107.28 75.7703 1107.28 75.7673 1107.28 75.7644L1107.28 75.7644L1107.28 75.7644C1107.28 75.7606 1107.28 75.7569 1107.28 75.7534C1107.28 75.7501 1107.28 75.747 1107.28 75.7443C1107.27 75.7212 1107.27 75.6982 1107.26 75.6752C1107.26 75.6694 1107.26 75.6694 1107.25 75.6637C1107.22 75.5946 1107.18 75.5544 1107.15 75.5601C1107.13 75.5601 1107.13 75.5659 1107.12 75.5774C1107.09 75.6061 1107.07 75.6752 1107.07 75.7615V75.7788C1107.07 75.7903 1107.07 75.8018 1107.08 75.8133V75.8191C1107.08 75.8593 1107.09 75.8939 1107.11 75.9226C1107.11 75.9254 1107.11 75.9282 1107.11 75.9309C1107.11 75.9331 1107.11 75.9352 1107.11 75.9373C1107.11 75.9431 1107.11 75.9482 1107.12 75.9514C1107.12 75.9543 1107.12 75.9586 1107.12 75.9629C1107.12 75.9672 1107.13 75.9716 1107.13 75.9744C1107.15 76.0147 1107.17 76.0377 1107.2 76.0435H1107.22C1107.22 76.0435 1107.22 76.042 1107.22 76.0406L1107.23 76.0389C1107.23 76.0382 1107.23 76.0377 1107.23 76.0377L1107.25 76.0205C1107.26 76.0032 1107.27 75.9802 1107.28 75.9514C1107.28 75.9457 1107.28 75.9399 1107.28 75.9342C1107.29 75.9169 1107.29 75.8881 1107.29 75.8593ZM1107.38 76.59C1107.4 76.6303 1107.42 76.6879 1107.43 76.7512C1107.43 76.7569 1107.43 76.7569 1107.43 76.7569C1107.45 76.8893 1107.42 76.9986 1107.36 77.0101C1107.31 77.0159 1107.25 76.9181 1107.23 76.7857V76.7799C1107.22 76.7166 1107.22 76.6591 1107.23 76.6131C1107.23 76.5728 1107.25 76.5383 1107.27 76.5268C1107.28 76.5268 1107.28 76.5253 1107.28 76.5239C1107.28 76.5224 1107.29 76.521 1107.29 76.521H1107.31C1107.33 76.5268 1107.35 76.5498 1107.38 76.59ZM1107.41 76.1067C1107.43 76.1125 1107.47 76.101 1107.5 76.078C1107.54 76.055 1107.58 76.0147 1107.62 75.9629C1107.62 75.9629 1107.62 75.9571 1107.63 75.9571C1107.63 75.9514 1107.64 75.9471 1107.64 75.9428L1107.64 75.9427C1107.64 75.9384 1107.64 75.9341 1107.65 75.9284L1107.65 75.9283C1107.65 75.9168 1107.66 75.9053 1107.66 75.8996C1107.67 75.891 1107.67 75.8838 1107.68 75.8766C1107.68 75.8694 1107.68 75.8622 1107.69 75.8536C1107.72 75.7845 1107.72 75.727 1107.69 75.7039C1107.68 75.6982 1107.68 75.6982 1107.67 75.6982C1107.65 75.6931 1107.64 75.697 1107.62 75.702L1107.61 75.7039C1107.59 75.7097 1107.58 75.7212 1107.56 75.7327C1107.53 75.7557 1107.49 75.7903 1107.46 75.8363L1107.45 75.842C1107.43 75.8708 1107.41 75.9053 1107.4 75.9341C1107.39 75.9571 1107.38 75.9744 1107.38 75.9917C1107.36 76.0319 1107.36 76.0665 1107.38 76.0895C1107.38 76.0917 1107.38 76.0939 1107.38 76.0958C1107.38 76.0988 1107.38 76.101 1107.39 76.101C1107.39 76.101 1107.4 76.103 1107.4 76.1046C1107.41 76.1058 1107.41 76.1067 1107.41 76.1067ZM1107.43 76.0492C1107.43 76.0665 1107.42 76.0837 1107.41 76.101C1107.42 76.0895 1107.43 76.0722 1107.43 76.0492ZM1107.09 76.4751C1107.1 76.4751 1107.11 76.4751 1107.11 76.4809C1107.12 76.4809 1107.12 76.4866 1107.12 76.4981C1107.13 76.5096 1107.13 76.5211 1107.13 76.5384C1107.14 76.5537 1107.14 76.569 1107.13 76.5883L1107.13 76.5959C1107.12 76.6246 1107.11 76.6493 1107.1 76.6766L1107.09 76.6938L1107.05 76.7456C1107.05 76.7456 1107.05 76.7513 1107.05 76.7513C1106.97 76.8549 1106.86 76.9182 1106.82 76.8837C1106.82 76.8815 1106.81 76.8801 1106.81 76.8789C1106.81 76.8771 1106.81 76.8757 1106.81 76.8722C1106.78 76.8376 1106.8 76.7686 1106.84 76.688C1106.84 76.6707 1106.85 76.6535 1106.86 76.6362C1106.86 76.6338 1106.87 76.6324 1106.87 76.6312C1106.87 76.6309 1106.87 76.6307 1106.87 76.6305C1106.87 76.629 1106.87 76.6276 1106.87 76.6247C1106.88 76.6247 1106.88 76.619 1106.88 76.619M1107.09 76.4751C1107.07 76.4693 1107.04 76.4809 1107 76.5039ZM1107 76.5039C1106.98 76.5154 1106.96 76.5326 1106.94 76.5499ZM1106.94 76.5499C1106.93 76.5614 1106.92 76.5729 1106.91 76.5845ZM1107.58 76.3198C1107.62 76.3314 1107.68 76.3314 1107.74 76.3198H1107.75C1107.76 76.3198 1107.76 76.3198 1107.77 76.3141C1107.78 76.3112 1107.78 76.3098 1107.79 76.3083C1107.8 76.3069 1107.8 76.3055 1107.81 76.3026C1107.88 76.2853 1107.93 76.2565 1107.95 76.2278C1107.95 76.2249 1107.96 76.222 1107.96 76.2191C1107.96 76.2163 1107.96 76.2134 1107.96 76.2105L1107.96 76.2105C1107.97 76.199 1107.97 76.1875 1107.97 76.176C1107.97 76.1357 1107.91 76.1127 1107.84 76.1069C1107.8 76.1069 1107.76 76.1069 1107.72 76.1127H1107.72C1107.69 76.1184 1107.67 76.1242 1107.65 76.13C1107.62 76.1357 1107.6 76.1472 1107.58 76.1587C1107.57 76.1616 1107.57 76.163 1107.57 76.1645C1107.57 76.1659 1107.56 76.1674 1107.56 76.1702C1107.54 76.1817 1107.52 76.199 1107.51 76.2105C1107.5 76.222 1107.49 76.2335 1107.49 76.2393V76.2565C1107.49 76.2594 1107.49 76.2623 1107.49 76.2652C1107.5 76.2681 1107.5 76.2709 1107.5 76.2738C1107.51 76.2911 1107.54 76.3083 1107.58 76.3198ZM1107.02 76.3253V76.3426C1107.01 76.3656 1106.98 76.3944 1106.96 76.4174C1106.92 76.4404 1106.86 76.4577 1106.79 76.4692H1106.79H1106.77C1106.75 76.4749 1106.74 76.4749 1106.73 76.4749C1106.66 76.4749 1106.61 76.4634 1106.57 76.4462C1106.57 76.4433 1106.56 76.4418 1106.56 76.4404C1106.56 76.439 1106.56 76.4375 1106.55 76.4347C1106.54 76.4231 1106.53 76.4116 1106.53 76.4001C1106.52 76.3598 1106.57 76.3196 1106.64 76.2908C1106.66 76.2793 1106.68 76.2735 1106.7 76.2678C1106.71 76.262 1106.73 76.2563 1106.75 76.2563H1106.75C1106.81 76.2505 1106.86 76.2505 1106.9 76.2563C1106.91 76.262 1106.92 76.262 1106.92 76.262C1106.96 76.2678 1106.99 76.285 1107.01 76.3023C1107.01 76.3023 1107.01 76.3081 1107.01 76.3081C1107.01 76.3109 1107.02 76.3138 1107.02 76.3167C1107.02 76.3196 1107.02 76.3224 1107.02 76.3253ZM1107.84 76.7223C1107.84 76.7166 1107.85 76.7108 1107.85 76.7108C1107.86 76.6705 1107.83 76.6072 1107.77 76.5439L1107.77 76.5439C1107.76 76.5324 1107.74 76.5151 1107.72 76.5036C1107.72 76.5036 1107.72 76.5029 1107.72 76.5019C1107.72 76.5015 1107.72 76.5011 1107.72 76.5008C1107.71 76.4993 1107.71 76.4979 1107.71 76.4979L1107.7 76.4921C1107.7 76.4873 1107.69 76.4825 1107.68 76.4779L1107.68 76.4778L1107.68 76.4777C1107.66 76.4656 1107.64 76.4544 1107.62 76.4461C1107.6 76.4346 1107.58 76.4231 1107.55 76.4173C1107.51 76.4058 1107.48 76.4058 1107.46 76.4173C1107.45 76.4195 1107.45 76.4209 1107.45 76.422C1107.45 76.4239 1107.45 76.4253 1107.45 76.4288C1107.44 76.4346 1107.44 76.4403 1107.44 76.4461C1107.43 76.4576 1107.44 76.4749 1107.45 76.4864L1107.45 76.4864C1107.45 76.5037 1107.46 76.5209 1107.47 76.5382C1107.49 76.5612 1107.51 76.59 1107.54 76.6187C1107.54 76.6234 1107.55 76.6289 1107.56 76.6347C1107.57 76.6432 1107.58 76.6521 1107.59 76.659C1107.59 76.659 1107.59 76.659 1107.59 76.6648C1107.7 76.7453 1107.81 76.7683 1107.84 76.7223ZM1106.67 75.8421C1106.69 75.8363 1106.7 75.8306 1106.73 75.8306C1106.73 75.8323 1106.74 75.8336 1106.74 75.8348C1106.75 75.8374 1106.76 75.8399 1106.77 75.8478C1106.81 75.8536 1106.84 75.8708 1106.88 75.8939C1106.88 75.8967 1106.89 75.8996 1106.89 75.9025C1106.89 75.9054 1106.9 75.9083 1106.9 75.9111H1106.91C1106.91 75.9169 1106.92 75.9169 1106.92 75.9169C1106.97 75.9572 1107.01 75.9974 1107.03 76.0377C1107.05 76.078 1107.07 76.1125 1107.06 76.1355C1107.06 76.1413 1107.06 76.1471 1107.05 76.1528C1107.05 76.1564 1107.05 76.1577 1107.05 76.1596C1107.05 76.1608 1107.04 76.1621 1107.04 76.1643C1107.02 76.1758 1106.99 76.1758 1106.94 76.1643C1106.94 76.1623 1106.94 76.161 1106.93 76.1599C1106.93 76.1594 1106.93 76.159 1106.93 76.1586L1106.93 76.1586C1106.93 76.1571 1106.92 76.1557 1106.92 76.1528C1106.88 76.1355 1106.84 76.1125 1106.8 76.0838L1106.79 76.078C1106.79 76.0767 1106.78 76.0751 1106.78 76.0733C1106.78 76.0712 1106.78 76.0688 1106.78 76.0665C1106.77 76.0622 1106.77 76.0579 1106.76 76.055C1106.75 76.0433 1106.73 76.0289 1106.72 76.0155L1106.72 76.0155C1106.71 76.0091 1106.71 76.003 1106.7 75.9974C1106.66 75.9457 1106.64 75.8939 1106.66 75.8651C1106.66 75.8593 1106.66 75.8536 1106.66 75.8536C1106.66 75.85 1106.67 75.8487 1106.67 75.8468L1106.67 75.8451C1106.67 75.8443 1106.67 75.8433 1106.67 75.8421ZM1107.68 78.2358C1107.43 78.2761 1107.19 78.2933 1106.98 78.2933C1106.94 78.2933 1106.9 78.2918 1106.86 78.2904H1106.86L1106.86 78.2904C1106.82 78.289 1106.78 78.2876 1106.74 78.2876C1106.17 78.2531 1105.74 78.0977 1105.36 77.879C1104.97 77.6488 1104.65 77.3323 1104.41 77.0043C1104.27 76.8145 1104.15 76.6188 1104.06 76.4347C1103.94 76.1872 1103.84 75.957 1103.79 75.8017C1103.77 75.7296 1103.75 75.6714 1103.74 75.631L1103.74 75.631L1103.73 75.6175C1103.73 75.6135 1103.73 75.6098 1103.73 75.6064C1103.73 75.6024 1103.73 75.5988 1103.73 75.5956C1103.72 75.5857 1103.72 75.5786 1103.72 75.5715V75.5657C1103.66 75.2838 1103.43 75.0824 1103.16 75.0363C1103.07 75.0248 1102.99 75.0248 1102.9 75.0421C1102.53 75.1227 1102.3 75.4967 1102.38 75.865C1102.39 75.9168 1102.59 76.8087 1103.26 77.7467C1103.51 78.0977 1103.83 78.4545 1104.23 78.7652C1104.37 78.8688 1104.52 78.9666 1104.67 79.0587C1105.29 79.427 1106.06 79.6629 1106.98 79.6629H1106.99C1107.27 79.6629 1107.58 79.6399 1107.89 79.5938C1108.27 79.5363 1108.52 79.1853 1108.46 78.8055C1108.46 78.7882 1108.46 78.771 1108.45 78.7537C1108.42 78.6386 1108.37 78.535 1108.3 78.4487C1108.14 78.2876 1107.91 78.1955 1107.68 78.2358Z" fill="white"/>
</g>
<path d="M68 80H129" stroke="white" stroke-width="2"/>
<path d="M205 80H266" stroke="white" stroke-width="2"/>
<path d="M342 80H449" stroke="white" stroke-width="2"/>
<path d="M625 80H673" stroke="white" stroke-width="2"/>
<path d="M749 80H810" stroke="white" stroke-width="2"/>
<path d="M884 80H945" stroke="white" stroke-width="2"/>
<path d="M884 80H945" stroke="white" stroke-width="2"/>
<path d="M1020 80H1081" stroke="white" stroke-width="2"/>
<path fill-rule="evenodd" clip-rule="evenodd" d="M537 160C581.183 160 617 124.183 617 80C617 35.8172 581.183 0 537 0C492.817 0 457 35.8172 457 80C457 124.183 492.817 160 537 160ZM532.109 58.8043C532.109 62.3707 530.963 65.6697 529.021 68.3537L547.992 87.3246C550.483 85.7818 553.42 84.8912 556.565 84.8912C565.57 84.8912 572.869 92.1908 572.869 101.195C572.869 110.2 565.57 117.5 556.565 117.5C547.561 117.5 540.261 110.2 540.261 101.195C540.261 97.1054 541.767 93.3671 544.255 90.5048L525.594 71.8438C522.868 73.8937 519.478 75.1086 515.804 75.1086C506.8 75.1086 499.5 67.8089 499.5 58.8043C499.5 49.7997 506.8 42.5 515.804 42.5C524.809 42.5 532.109 49.7997 532.109 58.8043ZM523.958 58.8048C523.958 63.3071 520.308 66.957 515.806 66.957C511.303 66.957 507.653 63.3071 507.653 58.8048C507.653 54.3025 511.303 50.6527 515.806 50.6527C520.308 50.6527 523.958 54.3025 523.958 58.8048ZM564.718 101.196C564.718 105.699 561.068 109.348 556.566 109.348C552.063 109.348 548.413 105.699 548.413 101.196C548.413 96.6939 552.063 93.0441 556.566 93.0441C561.068 93.0441 564.718 96.6939 564.718 101.196ZM550.146 73.7957C552.117 74.6407 554.287 75.1086 556.567 75.1086C565.571 75.1086 572.871 67.8089 572.871 58.8043C572.871 49.7997 565.571 42.5 556.567 42.5C547.562 42.5 540.263 49.7997 540.263 58.8043C540.263 61.2492 540.801 63.5684 541.765 65.65L536.998 70.4172L545.261 78.6807L550.146 73.7957ZM515.805 117.5C506.801 117.5 499.501 110.2 499.501 101.195C499.501 92.1908 506.801 84.8912 515.805 84.8912C517.809 84.8912 519.728 85.2527 521.502 85.914L527.417 79.9984L535.681 88.2619L530.273 93.6702C531.446 95.9215 532.109 98.481 532.109 101.195C532.109 110.2 524.81 117.5 515.805 117.5Z" fill="white"/>
<defs>
<clipPath id="clip0_72_381">
<rect width="60" height="60" fill="white" transform="translate(0 50)"/>
</clipPath>
<clipPath id="clip1_72_381">
<rect width="60" height="60" fill="white" transform="translate(137 50)"/>
</clipPath>
<clipPath id="clip2_72_381">
<rect width="60" height="60" fill="white" transform="translate(274 50)"/>
</clipPath>
<clipPath id="clip3_72_381">
<rect width="60" height="60" fill="white" transform="translate(681 50)"/>
</clipPath>
<clipPath id="clip4_72_381">
<rect width="60" height="60" fill="white" transform="translate(817 50)"/>
</clipPath>
<clipPath id="clip5_72_381">
<rect width="60" height="60" fill="white" transform="translate(953 50)"/>
</clipPath>
<clipPath id="clip6_72_381">
<rect width="60" height="60" fill="white" transform="translate(1089 50)"/>
</clipPath>
</defs>
</svg>
