<svg width="144" height="40" viewBox="0 0 144 40" fill="none" xmlns="http://www.w3.org/2000/svg">
<path d="M6.38672 38H5.55664V34.6357H1.80664V38H0.976562V30.8613H1.80664V33.9033H5.55664V30.8613H6.38672V38ZM14.541 34.4209C14.541 34.971 14.471 35.4723 14.3311 35.9248C14.1911 36.374 13.9827 36.7614 13.7061 37.0869C13.4326 37.4092 13.0924 37.6582 12.6855 37.834C12.2786 38.0098 11.8066 38.0977 11.2695 38.0977C10.7161 38.0977 10.2327 38.0098 9.81934 37.834C9.40918 37.6582 9.06738 37.4076 8.79395 37.082C8.52376 36.7565 8.32031 36.3675 8.18359 35.915C8.05013 35.4626 7.9834 34.9613 7.9834 34.4111C7.9834 33.682 8.10384 33.0423 8.34473 32.4922C8.58561 31.9421 8.9502 31.514 9.43848 31.208C9.93001 30.902 10.5452 30.749 11.2842 30.749C11.9906 30.749 12.5846 30.9004 13.0664 31.2031C13.5514 31.5059 13.9176 31.9323 14.165 32.4824C14.4157 33.0293 14.541 33.6755 14.541 34.4209ZM8.85742 34.4209C8.85742 35.0264 8.94368 35.5505 9.11621 35.9932C9.28874 36.4359 9.55241 36.7777 9.90723 37.0186C10.2653 37.2594 10.7194 37.3799 11.2695 37.3799C11.8229 37.3799 12.2754 37.2594 12.627 37.0186C12.9818 36.7777 13.2438 36.4359 13.4131 35.9932C13.5824 35.5505 13.667 35.0264 13.667 34.4209C13.667 33.4997 13.4733 32.7803 13.0859 32.2627C12.7018 31.7419 12.1012 31.4814 11.2842 31.4814C10.7308 31.4814 10.2751 31.6003 9.91699 31.8379C9.55892 32.0755 9.29199 32.4141 9.11621 32.8535C8.94368 33.2897 8.85742 33.8122 8.85742 34.4209ZM20.1611 36.1006C20.1611 36.5238 20.0553 36.8851 19.8438 37.1846C19.6354 37.4808 19.3424 37.707 18.9648 37.8633C18.5872 38.0195 18.1429 38.0977 17.6318 38.0977C17.3617 38.0977 17.1061 38.0846 16.8652 38.0586C16.6243 38.0326 16.403 37.9951 16.2012 37.9463C15.9993 37.8975 15.8219 37.8372 15.6689 37.7656V36.9697C15.9131 37.0706 16.2109 37.165 16.5625 37.2529C16.9141 37.3376 17.2819 37.3799 17.666 37.3799C18.0241 37.3799 18.3268 37.3327 18.5742 37.2383C18.8216 37.1406 19.0088 37.0023 19.1357 36.8232C19.266 36.641 19.3311 36.4229 19.3311 36.1689C19.3311 35.9248 19.2773 35.7214 19.1699 35.5586C19.0625 35.3926 18.8835 35.2428 18.6328 35.1094C18.3854 34.9727 18.0469 34.8278 17.6172 34.6748C17.3145 34.5674 17.0475 34.4502 16.8164 34.3232C16.5853 34.193 16.3916 34.0465 16.2354 33.8838C16.0791 33.721 15.9603 33.5322 15.8789 33.3174C15.8008 33.1025 15.7617 32.8568 15.7617 32.5801C15.7617 32.1992 15.8577 31.8737 16.0498 31.6035C16.2451 31.3301 16.5137 31.1217 16.8555 30.9785C17.2005 30.832 17.596 30.7588 18.042 30.7588C18.4229 30.7588 18.7744 30.7946 19.0967 30.8662C19.4222 30.9378 19.7201 31.0339 19.9902 31.1543L19.7314 31.8672C19.4743 31.7598 19.2008 31.6702 18.9111 31.5986C18.6247 31.527 18.3285 31.4912 18.0225 31.4912C17.7165 31.4912 17.4577 31.5368 17.2461 31.6279C17.0378 31.7158 16.8783 31.8411 16.7676 32.0039C16.6569 32.1667 16.6016 32.3604 16.6016 32.585C16.6016 32.8356 16.6536 33.0439 16.7578 33.21C16.8652 33.376 17.0345 33.5241 17.2656 33.6543C17.5 33.7812 17.8092 33.9147 18.1934 34.0547C18.6133 34.2077 18.9697 34.3704 19.2627 34.543C19.5557 34.7122 19.7786 34.9206 19.9316 35.168C20.0846 35.4121 20.1611 35.723 20.1611 36.1006ZM23.4863 30.8613C24.4076 30.8613 25.0798 31.042 25.5029 31.4033C25.9294 31.7614 26.1426 32.2757 26.1426 32.9463C26.1426 33.249 26.0921 33.5371 25.9912 33.8105C25.8936 34.0807 25.734 34.32 25.5127 34.5283C25.2913 34.7334 25 34.8962 24.6387 35.0166C24.2806 35.1338 23.8411 35.1924 23.3203 35.1924H22.4512V38H21.6211V30.8613H23.4863ZM23.4082 31.5693H22.4512V34.4795H23.2275C23.6833 34.4795 24.0625 34.4307 24.3652 34.333C24.6712 34.2354 24.9007 34.0775 25.0537 33.8594C25.2067 33.638 25.2832 33.3451 25.2832 32.9805C25.2832 32.5052 25.1318 32.152 24.8291 31.9209C24.5264 31.6865 24.0527 31.5693 23.4082 31.5693ZM27.6367 38V30.8613H28.4668V38H27.6367ZM32.6221 38H31.7871V31.5938H29.541V30.8613H34.8584V31.5938H32.6221V38ZM40.415 38L39.5361 35.7344H36.6748L35.8008 38H34.9609L37.7539 30.832H38.501L41.2744 38H40.415ZM39.2871 34.9971L38.4521 32.7461C38.4326 32.6875 38.4001 32.5915 38.3545 32.458C38.3122 32.3245 38.2682 32.1862 38.2227 32.043C38.1771 31.8997 38.1396 31.7842 38.1104 31.6963C38.0778 31.8298 38.042 31.9632 38.0029 32.0967C37.9671 32.2269 37.9313 32.349 37.8955 32.4629C37.8597 32.5736 37.8288 32.668 37.8027 32.7461L36.9531 34.9971H39.2871ZM42.2656 38V30.8613H43.0957V37.2578H46.2646V38H42.2656ZM56.2793 34.4209C56.2793 34.971 56.2093 35.4723 56.0693 35.9248C55.9294 36.374 55.721 36.7614 55.4443 37.0869C55.1709 37.4092 54.8307 37.6582 54.4238 37.834C54.0169 38.0098 53.5449 38.0977 53.0078 38.0977C52.4544 38.0977 51.971 38.0098 51.5576 37.834C51.1475 37.6582 50.8057 37.4076 50.5322 37.082C50.262 36.7565 50.0586 36.3675 49.9219 35.915C49.7884 35.4626 49.7217 34.9613 49.7217 34.4111C49.7217 33.682 49.8421 33.0423 50.083 32.4922C50.3239 31.9421 50.6885 31.514 51.1768 31.208C51.6683 30.902 52.2835 30.749 53.0225 30.749C53.7288 30.749 54.3229 30.9004 54.8047 31.2031C55.2897 31.5059 55.6559 31.9323 55.9033 32.4824C56.154 33.0293 56.2793 33.6755 56.2793 34.4209ZM50.5957 34.4209C50.5957 35.0264 50.682 35.5505 50.8545 35.9932C51.027 36.4359 51.2907 36.7777 51.6455 37.0186C52.0036 37.2594 52.4577 37.3799 53.0078 37.3799C53.5612 37.3799 54.0137 37.2594 54.3652 37.0186C54.7201 36.7777 54.9821 36.4359 55.1514 35.9932C55.3206 35.5505 55.4053 35.0264 55.4053 34.4209C55.4053 33.4997 55.2116 32.7803 54.8242 32.2627C54.4401 31.7419 53.8395 31.4814 53.0225 31.4814C52.4691 31.4814 52.0133 31.6003 51.6553 31.8379C51.2972 32.0755 51.0303 32.4141 50.8545 32.8535C50.682 33.2897 50.5957 33.8122 50.5957 34.4209ZM59.7363 30.8613C60.6576 30.8613 61.3298 31.042 61.7529 31.4033C62.1794 31.7614 62.3926 32.2757 62.3926 32.9463C62.3926 33.249 62.3421 33.5371 62.2412 33.8105C62.1436 34.0807 61.984 34.32 61.7627 34.5283C61.5413 34.7334 61.25 34.8962 60.8887 35.0166C60.5306 35.1338 60.0911 35.1924 59.5703 35.1924H58.7012V38H57.8711V30.8613H59.7363ZM59.6582 31.5693H58.7012V34.4795H59.4775C59.9333 34.4795 60.3125 34.4307 60.6152 34.333C60.9212 34.2354 61.1507 34.0775 61.3037 33.8594C61.4567 33.638 61.5332 33.3451 61.5332 32.9805C61.5332 32.5052 61.3818 32.152 61.0791 31.9209C60.7764 31.6865 60.3027 31.5693 59.6582 31.5693ZM67.8613 38H63.8867V30.8613H67.8613V31.5938H64.7168V33.9033H67.6807V34.626H64.7168V37.2676H67.8613V38ZM71.3721 30.8613C71.958 30.8613 72.4414 30.9346 72.8223 31.0811C73.2064 31.2243 73.4928 31.444 73.6816 31.7402C73.8704 32.0365 73.9648 32.4141 73.9648 32.873C73.9648 33.2507 73.8965 33.5664 73.7598 33.8203C73.623 34.071 73.444 34.2744 73.2227 34.4307C73.0013 34.5869 72.7653 34.7074 72.5146 34.792L74.4727 38H73.5059L71.7578 35.0215H70.2734V38H69.4434V30.8613H71.3721ZM71.3232 31.5791H70.2734V34.3184H71.4062C71.9889 34.3184 72.417 34.1995 72.6904 33.9619C72.9671 33.7243 73.1055 33.3743 73.1055 32.9121C73.1055 32.4271 72.959 32.0837 72.666 31.8818C72.3763 31.68 71.9287 31.5791 71.3232 31.5791ZM80.0928 38L79.2139 35.7344H76.3525L75.4785 38H74.6387L77.4316 30.832H78.1787L80.9521 38H80.0928ZM78.9648 34.9971L78.1299 32.7461C78.1104 32.6875 78.0778 32.5915 78.0322 32.458C77.9899 32.3245 77.946 32.1862 77.9004 32.043C77.8548 31.8997 77.8174 31.7842 77.7881 31.6963C77.7555 31.8298 77.7197 31.9632 77.6807 32.0967C77.6449 32.2269 77.609 32.349 77.5732 32.4629C77.5374 32.5736 77.5065 32.668 77.4805 32.7461L76.6309 34.9971H78.9648ZM84.1357 38H83.3008V31.5938H81.0547V30.8613H86.3721V31.5938H84.1357V38ZM87.4512 38V30.8613H88.2812V38H87.4512ZM96.4355 34.4209C96.4355 34.971 96.3656 35.4723 96.2256 35.9248C96.0856 36.374 95.8773 36.7614 95.6006 37.0869C95.3271 37.4092 94.987 37.6582 94.5801 37.834C94.1732 38.0098 93.7012 38.0977 93.1641 38.0977C92.6107 38.0977 92.1273 38.0098 91.7139 37.834C91.3037 37.6582 90.9619 37.4076 90.6885 37.082C90.4183 36.7565 90.2148 36.3675 90.0781 35.915C89.9447 35.4626 89.8779 34.9613 89.8779 34.4111C89.8779 33.682 89.9984 33.0423 90.2393 32.4922C90.4801 31.9421 90.8447 31.514 91.333 31.208C91.8245 30.902 92.4398 30.749 93.1787 30.749C93.8851 30.749 94.4792 30.9004 94.9609 31.2031C95.446 31.5059 95.8122 31.9323 96.0596 32.4824C96.3102 33.0293 96.4355 33.6755 96.4355 34.4209ZM90.752 34.4209C90.752 35.0264 90.8382 35.5505 91.0107 35.9932C91.1833 36.4359 91.4469 36.7777 91.8018 37.0186C92.1598 37.2594 92.6139 37.3799 93.1641 37.3799C93.7174 37.3799 94.1699 37.2594 94.5215 37.0186C94.8763 36.7777 95.1383 36.4359 95.3076 35.9932C95.4769 35.5505 95.5615 35.0264 95.5615 34.4209C95.5615 33.4997 95.3678 32.7803 94.9805 32.2627C94.5964 31.7419 93.9958 31.4814 93.1787 31.4814C92.6253 31.4814 92.1696 31.6003 91.8115 31.8379C91.4535 32.0755 91.1865 32.4141 91.0107 32.8535C90.8382 33.2897 90.752 33.8122 90.752 34.4209ZM103.608 38H102.651L98.7598 32.0039H98.7207C98.7305 32.1634 98.7419 32.3457 98.7549 32.5508C98.7679 32.7526 98.7777 32.9691 98.7842 33.2002C98.7939 33.4281 98.7988 33.6608 98.7988 33.8984V38H98.0273V30.8613H98.9795L102.856 36.8379H102.891C102.884 36.724 102.876 36.5628 102.866 36.3545C102.856 36.1429 102.847 35.9167 102.837 35.6758C102.83 35.4316 102.827 35.2054 102.827 34.9971V30.8613H103.608V38ZM111.206 31.4912C110.812 31.4912 110.457 31.5596 110.142 31.6963C109.829 31.8298 109.562 32.0251 109.341 32.2822C109.123 32.5361 108.955 32.8438 108.838 33.2051C108.721 33.5664 108.662 33.9733 108.662 34.4258C108.662 35.0247 108.755 35.5456 108.94 35.9883C109.129 36.4277 109.409 36.7679 109.78 37.0088C110.155 37.2497 110.622 37.3701 111.182 37.3701C111.501 37.3701 111.8 37.3441 112.08 37.292C112.363 37.2367 112.638 37.1683 112.905 37.0869V37.8096C112.645 37.9072 112.371 37.9788 112.085 38.0244C111.799 38.0732 111.458 38.0977 111.064 38.0977C110.339 38.0977 109.731 37.9479 109.243 37.6484C108.758 37.3457 108.394 36.9193 108.149 36.3691C107.909 35.819 107.788 35.1696 107.788 34.4209C107.788 33.8805 107.863 33.3874 108.013 32.9414C108.166 32.4922 108.387 32.1048 108.677 31.7793C108.97 31.4538 109.328 31.2031 109.751 31.0273C110.177 30.8483 110.666 30.7588 111.216 30.7588C111.577 30.7588 111.925 30.7946 112.261 30.8662C112.596 30.9378 112.899 31.0404 113.169 31.1738L112.837 31.877C112.609 31.7728 112.358 31.6833 112.085 31.6084C111.815 31.5303 111.522 31.4912 111.206 31.4912ZM118.428 38H114.453V30.8613H118.428V31.5938H115.283V33.9033H118.247V34.626H115.283V37.2676H118.428V38ZM125.591 38H124.634L120.742 32.0039H120.703C120.713 32.1634 120.724 32.3457 120.737 32.5508C120.75 32.7526 120.76 32.9691 120.767 33.2002C120.776 33.4281 120.781 33.6608 120.781 33.8984V38H120.01V30.8613H120.962L124.839 36.8379H124.873C124.867 36.724 124.858 36.5628 124.849 36.3545C124.839 36.1429 124.829 35.9167 124.819 35.6758C124.813 35.4316 124.81 35.2054 124.81 34.9971V30.8613H125.591V38ZM129.731 38H128.896V31.5938H126.65V30.8613H131.968V31.5938H129.731V38ZM137.021 38H133.047V30.8613H137.021V31.5938H133.877V33.9033H136.841V34.626H133.877V37.2676H137.021V38ZM140.532 30.8613C141.118 30.8613 141.602 30.9346 141.982 31.0811C142.367 31.2243 142.653 31.444 142.842 31.7402C143.031 32.0365 143.125 32.4141 143.125 32.873C143.125 33.2507 143.057 33.5664 142.92 33.8203C142.783 34.071 142.604 34.2744 142.383 34.4307C142.161 34.5869 141.925 34.7074 141.675 34.792L143.633 38H142.666L140.918 35.0215H139.434V38H138.604V30.8613H140.532ZM140.483 31.5791H139.434V34.3184H140.566C141.149 34.3184 141.577 34.1995 141.851 33.9619C142.127 33.7243 142.266 33.3743 142.266 32.9121C142.266 32.4271 142.119 32.0837 141.826 31.8818C141.536 31.68 141.089 31.5791 140.483 31.5791Z" fill="white"/>
<path fill-rule="evenodd" clip-rule="evenodd" d="M108.692 4.34781C108.692 5.29884 108.395 6.17854 107.892 6.89425L112.809 11.9532C113.454 11.5418 114.216 11.3044 115.031 11.3044C117.365 11.3044 119.257 13.251 119.257 15.6522C119.257 18.0534 117.365 20 115.031 20C112.697 20 110.805 18.0534 110.805 15.6522C110.805 14.5614 111.195 13.5645 111.84 12.8012L107.003 7.82497C106.297 8.37164 105.418 8.69562 104.466 8.69562C102.132 8.69562 100.24 6.74904 100.24 4.34781C100.24 1.94658 102.132 0 104.466 0C106.8 0 108.692 1.94658 108.692 4.34781ZM106.579 4.34783C106.579 5.54844 105.633 6.52173 104.466 6.52173C103.299 6.52173 102.353 5.54844 102.353 4.34783C102.353 3.14721 103.299 2.17392 104.466 2.17392C105.633 2.17392 106.579 3.14721 106.579 4.34783ZM117.144 15.6522C117.144 16.8529 116.198 17.8261 115.031 17.8261C113.864 17.8261 112.918 16.8529 112.918 15.6522C112.918 14.4516 113.864 13.4783 115.031 13.4783C116.198 13.4783 117.144 14.4516 117.144 15.6522ZM113.367 8.34565C113.878 8.5709 114.44 8.69562 115.031 8.69562C117.365 8.69562 119.257 6.74904 119.257 4.34781C119.257 1.94658 117.365 0 115.031 0C112.697 0 110.805 1.94658 110.805 4.34781C110.805 4.9999 110.945 5.61846 111.195 6.17361L109.959 7.4447L112.101 9.6483L113.367 8.34565ZM104.466 20C102.132 20 100.24 18.0534 100.24 15.6522C100.24 13.251 102.132 11.3044 104.466 11.3044C104.986 11.3044 105.483 11.4008 105.943 11.5772L107.476 9.99969L109.618 12.2033L108.216 13.6455C108.52 14.2459 108.692 14.9284 108.692 15.6522C108.692 18.0534 106.8 20 104.466 20ZM10.4241 14.837H18.4799L20.3156 20H22.9173L15.5614 0.217438H13.3427L6 20H8.61484L10.4241 14.837ZM17.7272 12.6902H11.1901L14.452 3.43754L17.7272 12.6902ZM37.7347 20H40.2835V0.217438H37.7611V15.5299L28.0545 0.217438H25.5057V20H28.0545V4.75547L37.7347 20ZM47.5866 14.837L45.7773 20H43.1625L50.5052 0.217438H52.7238L60.0797 20H57.4781L55.6424 14.837H47.5866ZM48.3526 12.6902H54.8897L51.6145 3.43754L48.3526 12.6902ZM71.0949 19.8331L72.6487 13.4567L77.1819 0.217438H82.3852V20H78.4101V14.5924L78.8063 5.25818L73.6162 20H70.8957L70.8113 19.76L71.0949 19.8331ZM65.7188 5.27177L70.2174 18.0703L71.5679 12.5282L67.33 0.217438H62.1531V20H66.115V14.5924L65.7188 5.27177ZM97.4139 11.4266H89.8071V16.7255H98.7345V20H85.8452V0.217438H98.7081V3.51906H89.8071V8.23372H97.4139V11.4266ZM126.516 15.9239H132.12L133.454 20H137.667L130.469 0.217438H126.798L119.64 20H123.853L125.174 15.9239H125.18L126.249 12.6223H126.243L128.634 5.21742L131.05 12.6223H127.586L126.516 15.9239Z" fill="white"/>
</svg>
