<svg width="271" height="76" viewBox="0 0 271 76" fill="none" xmlns="http://www.w3.org/2000/svg">
<path fill-rule="evenodd" clip-rule="evenodd" d="M211.302 8.69558C211.302 10.5976 210.691 12.357 209.656 13.7884L219.773 23.9056C221.101 23.0828 222.668 22.6078 224.345 22.6078C229.148 22.6078 233.041 26.5009 233.041 31.3033C233.041 36.1058 229.148 39.9989 224.345 39.9989C219.543 39.9989 215.65 36.1058 215.65 31.3033C215.65 29.122 216.453 27.1283 217.78 25.6018L207.828 15.6498C206.374 16.7432 204.566 17.3912 202.607 17.3912C197.804 17.3912 193.911 13.498 193.911 8.69558C193.911 3.89314 197.804 0 202.607 0C207.409 0 211.302 3.89314 211.302 8.69558ZM206.955 8.69503C206.955 11.0962 205.008 13.0428 202.607 13.0428C200.206 13.0428 198.259 11.0962 198.259 8.69503C198.259 6.29381 200.206 4.34724 202.607 4.34724C205.008 4.34724 206.955 6.29381 206.955 8.69503ZM228.693 31.3028C228.693 33.704 226.747 35.6506 224.346 35.6506C221.944 35.6506 219.998 33.704 219.998 31.3028C219.998 28.9016 221.944 26.955 224.346 26.955C226.747 26.955 228.693 28.9016 228.693 31.3028ZM220.922 16.691C221.973 17.1416 223.131 17.3912 224.346 17.3912C229.149 17.3912 233.042 13.498 233.042 8.69558C233.042 3.89314 229.149 0 224.346 0C219.544 0 215.651 3.89314 215.651 8.69558C215.651 9.99958 215.938 11.2365 216.452 12.3467L213.91 14.8894L218.317 19.2966L220.922 16.691ZM202.607 39.9989C197.805 39.9989 193.912 36.1058 193.912 31.3033C193.912 26.5009 197.805 22.6078 202.607 22.6078C203.676 22.6078 204.7 22.8007 205.646 23.1536L208.8 19.9999L213.207 24.4071L210.324 27.2908C210.949 28.4912 211.303 29.856 211.303 31.3033C211.303 36.1058 207.41 39.9989 202.607 39.9989ZM9.10318 29.6736H25.6791L29.4563 39.9996H34.8095L19.6737 0.434761H15.1086L0 39.9996H5.38039L9.10318 29.6736ZM24.1302 25.3802H10.6793L17.3912 6.87492L24.1302 25.3802ZM65.2983 39.9996H70.5429V0.434761H65.3527V31.0595L45.38 0.434761H40.1355V39.9996H45.38V9.51077L65.2983 39.9996ZM85.5699 29.6736L81.8471 39.9996H76.4667L91.5753 0.434761H96.1405L111.276 39.9996H105.923L102.146 29.6736H85.5699ZM87.146 25.3802H100.597L93.8579 6.87492L87.146 25.3802ZM133.942 39.6665L137.14 26.909L146.466 0.434761H157.173V39.9996H148.993V29.1845L149.808 10.5162L139.129 39.9996H133.531L133.358 39.5203L133.942 39.6665ZM122.879 10.5434L132.136 36.1409L134.915 25.0569L126.195 0.434761H115.542V39.9996H123.695V29.1845L122.879 10.5434ZM188.096 22.853H172.444V33.4508H190.814V39.9996H164.292V0.434761H190.759V7.03796H172.444V16.4672H188.096V22.853ZM247.977 31.8475H259.509L262.253 39.9996H270.922L256.112 0.434761H248.558L233.829 39.9996H242.498L245.215 31.8475H245.227L247.429 25.2443H247.416L252.335 10.4347L257.308 25.2443H250.178L247.977 31.8475Z" fill="white"/>
<path d="M27.5078 70H25.6406V64.8438H20.375V70H18.5V58.5781H20.375V63.25H25.6406V58.5781H27.5078V70ZM40.6719 64.2734C40.6719 65.1536 40.5599 65.9557 40.3359 66.6797C40.1172 67.3984 39.7865 68.0182 39.3438 68.5391C38.901 69.0547 38.3464 69.4531 37.6797 69.7344C37.013 70.0156 36.2318 70.1562 35.3359 70.1562C34.4245 70.1562 33.6328 70.0156 32.9609 69.7344C32.2943 69.4531 31.7396 69.0521 31.2969 68.5312C30.8594 68.0104 30.5312 67.388 30.3125 66.6641C30.0938 65.9401 29.9844 65.138 29.9844 64.2578C29.9844 63.0807 30.1771 62.0547 30.5625 61.1797C30.9531 60.2995 31.5443 59.6172 32.3359 59.1328C33.1328 58.6432 34.138 58.3984 35.3516 58.3984C36.5391 58.3984 37.526 58.6406 38.3125 59.125C39.099 59.6094 39.6875 60.2917 40.0781 61.1719C40.474 62.0469 40.6719 63.0807 40.6719 64.2734ZM31.9531 64.2734C31.9531 65.1536 32.0729 65.9167 32.3125 66.5625C32.5521 67.2031 32.9193 67.6979 33.4141 68.0469C33.9141 68.3906 34.5547 68.5625 35.3359 68.5625C36.1224 68.5625 36.763 68.3906 37.2578 68.0469C37.7526 67.6979 38.1172 67.2031 38.3516 66.5625C38.5859 65.9167 38.7031 65.1536 38.7031 64.2734C38.7031 62.9349 38.4349 61.888 37.8984 61.1328C37.3672 60.3724 36.5182 59.9922 35.3516 59.9922C34.5703 59.9922 33.9271 60.1641 33.4219 60.5078C32.9219 60.8516 32.5521 61.3438 32.3125 61.9844C32.0729 62.6198 31.9531 63.3828 31.9531 64.2734ZM49.7188 66.8906C49.7188 67.5677 49.5521 68.151 49.2188 68.6406C48.8906 69.1302 48.4167 69.5052 47.7969 69.7656C47.1823 70.026 46.4479 70.1562 45.5938 70.1562C45.1771 70.1562 44.7786 70.1328 44.3984 70.0859C44.0182 70.0391 43.6589 69.9714 43.3203 69.8828C42.987 69.7891 42.6823 69.6771 42.4062 69.5469V67.7812C42.8698 67.9844 43.388 68.1693 43.9609 68.3359C44.5339 68.4974 45.1172 68.5781 45.7109 68.5781C46.1953 68.5781 46.5964 68.5156 46.9141 68.3906C47.237 68.2604 47.4766 68.0781 47.6328 67.8438C47.7891 67.6042 47.8672 67.3255 47.8672 67.0078C47.8672 66.6693 47.776 66.3828 47.5938 66.1484C47.4115 65.9141 47.1354 65.7005 46.7656 65.5078C46.401 65.3099 45.9427 65.099 45.3906 64.875C45.0156 64.724 44.6562 64.5521 44.3125 64.3594C43.974 64.1667 43.6719 63.9401 43.4062 63.6797C43.1406 63.4193 42.9297 63.112 42.7734 62.7578C42.6224 62.3984 42.5469 61.9766 42.5469 61.4922C42.5469 60.8464 42.7005 60.2943 43.0078 59.8359C43.3203 59.3776 43.7578 59.026 44.3203 58.7812C44.888 58.5365 45.5495 58.4141 46.3047 58.4141C46.9036 58.4141 47.4661 58.4766 47.9922 58.6016C48.5234 58.7266 49.0443 58.9036 49.5547 59.1328L48.9609 60.6406C48.4922 60.4479 48.0365 60.2943 47.5938 60.1797C47.1562 60.0651 46.7083 60.0078 46.25 60.0078C45.8542 60.0078 45.5182 60.0677 45.2422 60.1875C44.9661 60.3073 44.7552 60.4766 44.6094 60.6953C44.4688 60.9089 44.3984 61.1641 44.3984 61.4609C44.3984 61.7943 44.4792 62.0755 44.6406 62.3047C44.8073 62.5286 45.0625 62.7344 45.4062 62.9219C45.7552 63.1094 46.2031 63.3177 46.75 63.5469C47.3802 63.8073 47.9141 64.0807 48.3516 64.3672C48.7943 64.6536 49.1328 64.9974 49.3672 65.3984C49.6016 65.7943 49.7188 66.2917 49.7188 66.8906ZM55.2422 58.5781C56.7161 58.5781 57.7917 58.8802 58.4688 59.4844C59.1458 60.0885 59.4844 60.9349 59.4844 62.0234C59.4844 62.5182 59.4062 62.9896 59.25 63.4375C59.099 63.8802 58.849 64.2734 58.5 64.6172C58.151 64.9557 57.6901 65.224 57.1172 65.4219C56.5495 65.6198 55.849 65.7188 55.0156 65.7188H53.7969V70H51.9219V58.5781H55.2422ZM55.1172 60.1328H53.7969V64.1562H54.8203C55.4089 64.1562 55.9089 64.0885 56.3203 63.9531C56.7318 63.8125 57.0443 63.5911 57.2578 63.2891C57.4714 62.987 57.5781 62.5885 57.5781 62.0938C57.5781 61.4323 57.3776 60.9401 56.9766 60.6172C56.5807 60.2943 55.9609 60.1328 55.1172 60.1328ZM61.7656 70V58.5781H63.6406V70H61.7656ZM70.6172 70H68.7344V60.1719H65.3906V58.5781H73.9531V60.1719H70.6172V70ZM82.7812 70L81.6641 66.8281H77.2969L76.1797 70H74.2031L78.4531 58.5312H80.5312L84.7734 70H82.7812ZM81.1797 65.2188L80.0938 62.0938C80.0521 61.9583 79.9922 61.7682 79.9141 61.5234C79.8359 61.2734 79.7578 61.0208 79.6797 60.7656C79.6016 60.5052 79.5365 60.2865 79.4844 60.1094C79.4323 60.3229 79.3672 60.5625 79.2891 60.8281C79.2161 61.0885 79.1432 61.3333 79.0703 61.5625C79.0026 61.7917 78.9505 61.9688 78.9141 62.0938L77.8203 65.2188H81.1797ZM86.2812 70V58.5781H88.1562V68.4062H93.0078V70H86.2812ZM109.281 64.2734C109.281 65.1536 109.169 65.9557 108.945 66.6797C108.727 67.3984 108.396 68.0182 107.953 68.5391C107.51 69.0547 106.956 69.4531 106.289 69.7344C105.622 70.0156 104.841 70.1562 103.945 70.1562C103.034 70.1562 102.242 70.0156 101.57 69.7344C100.904 69.4531 100.349 69.0521 99.9062 68.5312C99.4688 68.0104 99.1406 67.388 98.9219 66.6641C98.7031 65.9401 98.5938 65.138 98.5938 64.2578C98.5938 63.0807 98.7865 62.0547 99.1719 61.1797C99.5625 60.2995 100.154 59.6172 100.945 59.1328C101.742 58.6432 102.747 58.3984 103.961 58.3984C105.148 58.3984 106.135 58.6406 106.922 59.125C107.708 59.6094 108.297 60.2917 108.688 61.1719C109.083 62.0469 109.281 63.0807 109.281 64.2734ZM100.562 64.2734C100.562 65.1536 100.682 65.9167 100.922 66.5625C101.161 67.2031 101.529 67.6979 102.023 68.0469C102.523 68.3906 103.164 68.5625 103.945 68.5625C104.732 68.5625 105.372 68.3906 105.867 68.0469C106.362 67.6979 106.727 67.2031 106.961 66.5625C107.195 65.9167 107.312 65.1536 107.312 64.2734C107.312 62.9349 107.044 61.888 106.508 61.1328C105.977 60.3724 105.128 59.9922 103.961 59.9922C103.18 59.9922 102.536 60.1641 102.031 60.5078C101.531 60.8516 101.161 61.3438 100.922 61.9844C100.682 62.6198 100.562 63.3828 100.562 64.2734ZM115.055 58.5781C116.529 58.5781 117.604 58.8802 118.281 59.4844C118.958 60.0885 119.297 60.9349 119.297 62.0234C119.297 62.5182 119.219 62.9896 119.062 63.4375C118.911 63.8802 118.661 64.2734 118.312 64.6172C117.964 64.9557 117.503 65.224 116.93 65.4219C116.362 65.6198 115.661 65.7188 114.828 65.7188H113.609V70H111.734V58.5781H115.055ZM114.93 60.1328H113.609V64.1562H114.633C115.221 64.1562 115.721 64.0885 116.133 63.9531C116.544 63.8125 116.857 63.5911 117.07 63.2891C117.284 62.987 117.391 62.5885 117.391 62.0938C117.391 61.4323 117.19 60.9401 116.789 60.6172C116.393 60.2943 115.773 60.1328 114.93 60.1328ZM128.047 70H121.578V58.5781H128.047V60.1562H123.453V63.2578H127.758V64.8281H123.453V68.4141H128.047V70ZM133.727 58.5781C134.711 58.5781 135.523 58.6979 136.164 58.9375C136.81 59.1771 137.289 59.5417 137.602 60.0312C137.919 60.5208 138.078 61.1432 138.078 61.8984C138.078 62.4609 137.974 62.9401 137.766 63.3359C137.557 63.7318 137.284 64.0599 136.945 64.3203C136.607 64.5807 136.245 64.7891 135.859 64.9453L139.102 70H136.984L134.227 65.4219H132.391V70H130.516V58.5781H133.727ZM133.602 60.1406H132.391V63.875H133.688C134.557 63.875 135.188 63.7135 135.578 63.3906C135.974 63.0677 136.172 62.5911 136.172 61.9609C136.172 61.2995 135.961 60.8307 135.539 60.5547C135.122 60.2786 134.477 60.1406 133.602 60.1406ZM147.812 70L146.695 66.8281H142.328L141.211 70H139.234L143.484 58.5312H145.562L149.805 70H147.812ZM146.211 65.2188L145.125 62.0938C145.083 61.9583 145.023 61.7682 144.945 61.5234C144.867 61.2734 144.789 61.0208 144.711 60.7656C144.633 60.5052 144.568 60.2865 144.516 60.1094C144.464 60.3229 144.398 60.5625 144.32 60.8281C144.247 61.0885 144.174 61.3333 144.102 61.5625C144.034 61.7917 143.982 61.9688 143.945 62.0938L142.852 65.2188H146.211ZM155.273 70H153.391V60.1719H150.047V58.5781H158.609V60.1719H155.273V70ZM160.359 70V58.5781H162.234V70H160.359ZM175.391 64.2734C175.391 65.1536 175.279 65.9557 175.055 66.6797C174.836 67.3984 174.505 68.0182 174.062 68.5391C173.62 69.0547 173.065 69.4531 172.398 69.7344C171.732 70.0156 170.951 70.1562 170.055 70.1562C169.143 70.1562 168.352 70.0156 167.68 69.7344C167.013 69.4531 166.458 69.0521 166.016 68.5312C165.578 68.0104 165.25 67.388 165.031 66.6641C164.812 65.9401 164.703 65.138 164.703 64.2578C164.703 63.0807 164.896 62.0547 165.281 61.1797C165.672 60.2995 166.263 59.6172 167.055 59.1328C167.852 58.6432 168.857 58.3984 170.07 58.3984C171.258 58.3984 172.245 58.6406 173.031 59.125C173.818 59.6094 174.406 60.2917 174.797 61.1719C175.193 62.0469 175.391 63.0807 175.391 64.2734ZM166.672 64.2734C166.672 65.1536 166.792 65.9167 167.031 66.5625C167.271 67.2031 167.638 67.6979 168.133 68.0469C168.633 68.3906 169.273 68.5625 170.055 68.5625C170.841 68.5625 171.482 68.3906 171.977 68.0469C172.471 67.6979 172.836 67.2031 173.07 66.5625C173.305 65.9167 173.422 65.1536 173.422 64.2734C173.422 62.9349 173.154 61.888 172.617 61.1328C172.086 60.3724 171.237 59.9922 170.07 59.9922C169.289 59.9922 168.646 60.1641 168.141 60.5078C167.641 60.8516 167.271 61.3438 167.031 61.9844C166.792 62.6198 166.672 63.3828 166.672 64.2734ZM187.375 70H185.07L179.477 60.8828H179.406C179.427 61.1901 179.445 61.5156 179.461 61.8594C179.482 62.2031 179.497 62.5573 179.508 62.9219C179.523 63.2865 179.536 63.6562 179.547 64.0312V70H177.844V58.5781H180.133L185.719 67.6328H185.773C185.763 67.3672 185.75 67.0625 185.734 66.7188C185.719 66.375 185.703 66.0208 185.688 65.6562C185.677 65.2865 185.669 64.9297 185.664 64.5859V58.5781H187.375V70ZM199.398 60.0078C198.852 60.0078 198.362 60.1068 197.93 60.3047C197.503 60.5026 197.141 60.7891 196.844 61.1641C196.547 61.5339 196.32 61.9844 196.164 62.5156C196.008 63.0417 195.93 63.6354 195.93 64.2969C195.93 65.1823 196.055 65.9453 196.305 66.5859C196.555 67.2214 196.935 67.7109 197.445 68.0547C197.956 68.3932 198.602 68.5625 199.383 68.5625C199.867 68.5625 200.339 68.5156 200.797 68.4219C201.255 68.3281 201.729 68.2005 202.219 68.0391V69.6328C201.755 69.8151 201.286 69.9479 200.812 70.0312C200.339 70.1146 199.792 70.1562 199.172 70.1562C198.005 70.1562 197.036 69.9141 196.266 69.4297C195.5 68.9453 194.927 68.263 194.547 67.3828C194.172 66.5026 193.984 65.4714 193.984 64.2891C193.984 63.4245 194.104 62.6328 194.344 61.9141C194.583 61.1953 194.932 60.5755 195.391 60.0547C195.849 59.5286 196.414 59.125 197.086 58.8438C197.763 58.5573 198.536 58.4141 199.406 58.4141C199.979 58.4141 200.542 58.4792 201.094 58.6094C201.651 58.7344 202.167 58.9141 202.641 59.1484L201.984 60.6953C201.589 60.5078 201.174 60.3464 200.742 60.2109C200.31 60.0755 199.862 60.0078 199.398 60.0078ZM211.141 70H204.672V58.5781H211.141V60.1562H206.547V63.2578H210.852V64.8281H206.547V68.4141H211.141V70ZM223.141 70H220.836L215.242 60.8828H215.172C215.193 61.1901 215.211 61.5156 215.227 61.8594C215.247 62.2031 215.263 62.5573 215.273 62.9219C215.289 63.2865 215.302 63.6562 215.312 64.0312V70H213.609V58.5781H215.898L221.484 67.6328H221.539C221.529 67.3672 221.516 67.0625 221.5 66.7188C221.484 66.375 221.469 66.0208 221.453 65.6562C221.443 65.2865 221.435 64.9297 221.43 64.5859V58.5781H223.141V70ZM230.102 70H228.219V60.1719H224.875V58.5781H233.438V60.1719H230.102V70ZM241.656 70H235.188V58.5781H241.656V60.1562H237.062V63.2578H241.367V64.8281H237.062V68.4141H241.656V70ZM247.336 58.5781C248.32 58.5781 249.133 58.6979 249.773 58.9375C250.419 59.1771 250.898 59.5417 251.211 60.0312C251.529 60.5208 251.688 61.1432 251.688 61.8984C251.688 62.4609 251.583 62.9401 251.375 63.3359C251.167 63.7318 250.893 64.0599 250.555 64.3203C250.216 64.5807 249.854 64.7891 249.469 64.9453L252.711 70H250.594L247.836 65.4219H246V70H244.125V58.5781H247.336ZM247.211 60.1406H246V63.875H247.297C248.167 63.875 248.797 63.7135 249.188 63.3906C249.583 63.0677 249.781 62.5911 249.781 61.9609C249.781 61.2995 249.57 60.8307 249.148 60.5547C248.732 60.2786 248.086 60.1406 247.211 60.1406Z" fill="white"/>
</svg>
