<svg width="100" height="100" viewBox="0 0 100 100" fill="none" xmlns="http://www.w3.org/2000/svg">
<path d="M50 12.5C29.2858 12.5 12.5 29.2877 12.5 50C12.5 70.7123 29.2851 87.5 50 87.5C70.7123 87.5 87.5 70.7123 87.5 50C87.5 29.2877 70.7123 12.5 50 12.5ZM41.2932 32.8172C43.1411 32.8172 44.6424 34.3119 44.6424 36.1654C44.6424 38.0133 43.1411 39.5127 41.2932 39.5127C39.4435 39.5127 37.946 38.0151 37.946 36.1654C37.9469 34.3119 39.4435 32.8172 41.2932 32.8172ZM53.1344 49.1182C52.1068 49.1182 51.0614 48.9986 50.0189 48.7473C49.4668 48.6137 48.895 48.5493 48.3112 48.5493C46.5109 48.5456 44.5705 49.1827 42.888 50.3318C41.2055 51.4771 39.8034 53.1175 39.0091 55.015C37.8936 57.6765 36.8782 60.0961 36.143 61.8506C35.7376 62.8184 35.4209 63.5733 35.2154 64.0628L70.0894 64.0637C71.1983 64.0637 72.098 64.9634 72.098 66.0723C72.098 67.1812 71.1983 68.0808 70.0894 68.0808L29.9108 68.0817C29.3821 68.0817 28.8645 67.8678 28.4899 67.4941C28.1153 67.1205 27.9023 66.6001 27.9023 66.0713V32.3835C27.9023 31.2746 28.8019 30.375 29.9108 30.375C31.0197 30.375 31.9194 31.2746 31.9194 32.3835V61.5321C32.6462 59.7964 33.8952 56.8228 35.3039 53.4605C36.4315 50.7793 38.3429 48.5709 40.6252 47.0116C42.9084 45.4571 45.5822 44.5342 48.3101 44.5313C49.1938 44.5313 50.0832 44.6294 50.9604 44.8405C51.6863 45.0162 52.4188 45.0993 53.1325 45.0993C54.8374 45.1003 56.4537 44.6201 57.7035 43.8185C58.9582 43.0151 59.826 41.9314 60.2053 40.6889C60.6809 39.1297 61.1237 37.6769 61.4955 36.457L52.897 34.299L66.4628 25.1306L74.156 39.6351L65.3988 37.4359C65.0157 38.6934 64.5514 40.2161 64.0488 41.8623C63.3528 44.1408 61.8011 45.9736 59.8665 47.206C57.9261 48.4429 55.5841 49.1155 53.1346 49.1174L53.1344 49.1182ZM55.3569 58.933C55.3569 60.7828 53.8584 62.2813 52.0087 62.2813C50.1589 62.2813 48.6605 60.7828 48.6605 58.933C48.6605 57.087 50.1589 55.5848 52.0087 55.5848C53.8584 55.5848 55.3569 57.087 55.3569 58.933Z" fill="white"/>
</svg>
