<svg width="100" height="100" viewBox="0 0 100 100" fill="none" xmlns="http://www.w3.org/2000/svg">
<path fill-rule="evenodd" clip-rule="evenodd" d="M42.0209 38.3537C43.9635 35.6697 45.1086 32.3707 45.1086 28.8043C45.1086 19.7997 37.8089 12.5 28.8043 12.5C19.7997 12.5 12.5 19.7997 12.5 28.8043C12.5 37.8089 19.7997 45.1086 28.8043 45.1086C32.4778 45.1086 35.8675 43.8937 38.5937 41.8438L57.2547 60.5048C54.7669 63.3671 53.2609 67.1054 53.2609 71.1954C53.2609 80.2001 60.5606 87.4997 69.5652 87.4997C78.5698 87.4997 85.8695 80.2001 85.8695 71.1954C85.8695 62.1908 78.5698 54.8912 69.5652 54.8912C66.4199 54.8912 63.4826 55.7818 60.9918 57.3246L42.0209 38.3537ZM28.8056 36.957C33.3079 36.957 36.9578 33.3071 36.9578 28.8048C36.9578 24.3025 33.3079 20.6527 28.8056 20.6527C24.3033 20.6527 20.6535 24.3025 20.6535 28.8048C20.6535 33.3071 24.3033 36.957 28.8056 36.957ZM69.5656 79.3484C74.0679 79.3484 77.7178 75.6985 77.7178 71.1962C77.7178 66.6939 74.0679 63.0441 69.5656 63.0441C65.0633 63.0441 61.4135 66.6939 61.4135 71.1962C61.4135 75.6985 65.0633 79.3484 69.5656 79.3484ZM69.5669 45.1086C67.2872 45.1086 65.1167 44.6407 63.1464 43.7957L58.2614 48.6807L49.9978 40.4172L54.7651 35.65C53.8007 33.5684 53.2626 31.2492 53.2626 28.8043C53.2626 19.7997 60.5623 12.5 69.5669 12.5C78.5715 12.5 85.8712 19.7997 85.8712 28.8043C85.8712 37.8089 78.5715 45.1086 69.5669 45.1086ZM12.5009 71.1954C12.5009 80.2001 19.8006 87.4997 28.8052 87.4997C37.8098 87.4997 45.1095 80.2001 45.1095 71.1954C45.1095 68.481 44.4461 65.9215 43.2727 63.6702L48.681 58.2619L40.4175 49.9984L34.5018 55.914C32.7285 55.2527 30.809 54.8912 28.8052 54.8912C19.8006 54.8912 12.5009 62.1908 12.5009 71.1954Z" fill="white"/>
</svg>
