<svg width="100" height="100" viewBox="0 0 100 100" fill="none" xmlns="http://www.w3.org/2000/svg">
<path fill-rule="evenodd" clip-rule="evenodd" d="M49.4897 22.7692L50.4182 22.0516C59.0398 15.3766 72.0882 13.007 80.3616 21.284C87.3252 28.2928 88.8838 38.9394 84.689 47.5502C84.6559 47.5502 84.6186 47.546 84.5813 47.5418C84.544 47.5376 84.5067 47.5335 84.4735 47.5335H58.6253L48.727 37.571L41.9624 57.7963L31.0527 47.3833H14.8375C14.6386 47.3833 14.4562 47.4333 14.2738 47.5001C10.1288 38.8727 11.6873 28.2761 18.6509 21.3007C22.3317 17.5794 27.0238 16.0108 31.8154 16.0108C37.7013 16.0108 43.8193 18.3971 48.5612 22.0516L49.4897 22.7692ZM43.3219 63.4202L50.0368 43.3284L57.332 50.6709H82.8652C82.6828 50.9379 82.5004 51.1882 82.3014 51.4385C81.688 52.2562 81.0082 53.0406 80.345 53.708L50.7994 83.4452L50.7829 83.4619C50.0699 84.1794 48.8928 84.1794 48.1798 83.4619L48.1632 83.4452L18.6177 53.708C17.9545 53.0239 17.2913 52.2729 16.6612 51.4385C16.604 51.3604 16.5478 51.2843 16.4924 51.2091C16.3229 50.9796 16.1605 50.7596 15.998 50.5207H29.8092L43.3219 63.4202Z" fill="white"/>
</svg>
