<svg width="24" height="24" viewBox="0 0 24 24" fill="none" xmlns="http://www.w3.org/2000/svg">
<path d="M17.3623 6.02734V6.66506C17.4823 6.66506 17.6023 6.67877 17.7189 6.70277C18.4252 6.84677 18.9772 7.39877 19.1212 8.10506C19.1452 8.22163 19.1589 8.34163 19.1589 8.46163H19.7966C19.7932 7.1142 18.7063 6.02734 17.3623 6.02734Z" fill="#FD3B3B"/>
<path d="M17.3623 4.74854V5.38625C19.056 5.38625 20.4274 6.76453 20.4274 8.45139H21.0652C21.072 6.40796 19.4092 4.74854 17.3623 4.74854Z" fill="#FD3B3B"/>
<path d="M17.2974 3.40796V4.04567C19.7659 4.04567 21.7716 6.05139 21.7716 8.51996H22.4128C22.4128 5.69824 20.1191 3.40796 17.2974 3.40796Z" fill="#FD3B3B"/>
<path d="M17.8254 7.34399C17.5305 7.34399 17.2905 7.58399 17.2905 7.87885C17.2905 8.17371 17.5305 8.41371 17.8254 8.41371C18.1202 8.41371 18.3602 8.17371 18.3602 7.87885C18.3602 7.59085 18.1202 7.34399 17.8254 7.34399Z" fill="#FD3B3B"/>
<path d="M10.1453 12.679L8.75673 16.807L5.96245 14.1567H3.10645C3.15102 14.2218 3.19559 14.2801 3.24359 14.3452C3.37387 14.5167 3.51102 14.671 3.64816 14.8115L9.75787 20.9212C9.75787 20.9212 9.75787 20.9212 9.7613 20.9247C9.90873 21.0721 10.1522 21.0721 10.2996 20.9247L10.303 20.9212L16.4127 14.8115C16.5499 14.6744 16.6904 14.5132 16.8173 14.3452C16.8584 14.2938 16.8962 14.2424 16.9339 14.1875H11.6539L10.1453 12.679Z" fill="#FD3B3B"/>
<path d="M10.2238 8.30732L10.0318 8.45475L9.83978 8.30732C8.85921 7.55646 7.59407 7.06618 6.37692 7.06618C5.38607 7.06618 4.41578 7.38846 3.65464 8.15303C2.21464 9.58618 1.89235 11.7633 2.74949 13.5359C2.78721 13.5222 2.82492 13.5119 2.86607 13.5119H6.21921L8.47521 15.6513L9.87407 11.4959L11.9209 13.5427H17.2661C17.2798 13.5427 17.2969 13.5462 17.3106 13.5462C18.1781 11.777 17.8558 9.5896 16.4158 8.1496C14.7049 6.44903 12.0066 6.93589 10.2238 8.30732Z" fill="#FD3B3B"/>
</svg>
